<svg width="460" height="436" viewBox="0 0 460 436" fill="none" xmlns="http://www.w3.org/2000/svg">
<path fill-rule="evenodd" clip-rule="evenodd" d="M222.22 22.9971C271.596 27.9959 317.134 42.97 356.219 73.5536C402.152 109.497 450.016 149.786 458.075 207.552C467.02 271.667 446.812 340.637 399.671 385.003C353.505 428.451 285.612 428.786 222.22 429.521C157.757 430.268 86.0477 434.895 40.6078 389.164C-4.75851 343.508 -1.5762 271.834 1.66306 207.552C4.69049 147.474 11.8995 81.9684 58.0332 43.3652C102.001 6.57411 165.181 17.2225 222.22 22.9971Z" fill="#090032"/>
<mask id="mask0_164_43" style="mask-type:alpha" maskUnits="userSpaceOnUse" x="0" y="17" width="461" height="414">
<path fill-rule="evenodd" clip-rule="evenodd" d="M222.22 23.7836C271.596 28.7778 317.134 43.738 356.219 74.2935C402.152 110.203 450.016 150.456 458.075 208.169C467.02 272.224 446.812 341.131 399.671 385.456C353.505 428.864 285.612 429.199 222.22 429.933C157.757 430.68 86.0477 435.302 40.6078 389.614C-4.75851 343.999 -1.5762 272.391 1.66306 208.169C4.69049 148.146 11.8995 82.7006 58.0332 44.133C102.001 7.3757 165.181 18.0143 222.22 23.7836Z" fill="#C4C4C4"/>
</mask>
<g mask="url(#mask0_164_43)">
<path d="M-254.777 423.911C-184.278 424.273 -184.64 470.067 -114.141 470.429C-91.123 470.549 -76.6617 464.403 -62.4414 458.86C-44.7263 451.87 -33.5188 444.157 -15.9242 437.168C-1.7039 431.504 12.7574 425.478 35.775 425.599C91.5715 425.96 102.9 455.003 140.499 466.813C150.863 470.067 162.914 471.875 177.978 471.634C212.926 471.152 230.521 459.342 249.2 448.616C267.879 437.891 285.474 428.129 320.422 428.973C335.486 429.334 347.537 431.745 357.901 434.878C395.5 446.688 406.949 471.272 462.625 471.513" stroke="#24162B" stroke-width="1.4071" stroke-miterlimit="10"/>
<path d="M-254.777 416.319C-184.76 416.681 -185.001 462.475 -114.984 462.836C-91.6051 462.957 -77.3848 456.208 -62.5619 450.665C-44.4853 443.796 -33.3983 437.047 -15.2011 430.178C-0.498803 424.634 13.842 417.886 37.2211 418.006C92.7767 418.368 103.984 447.772 141.704 459.221C152.189 462.354 164.119 464.162 179.062 463.8C213.77 463.077 231.244 451.147 250.043 440.542C268.843 429.937 286.317 420.778 321.024 421.863C335.968 422.345 347.898 424.755 358.383 427.888C396.103 439.457 407.31 462.836 462.866 463.198" stroke="#24162B" stroke-width="1.4071" stroke-miterlimit="10"/>
<path d="M-254.777 408.606C-185.242 408.968 -185.483 454.762 -115.948 455.123C-92.2076 455.244 -78.1078 447.772 -62.9234 442.349C-44.3648 435.721 -33.5188 429.696 -14.8396 422.947C0.344778 417.524 14.4446 410.052 38.1852 410.173C93.6202 410.534 104.466 440.301 142.427 451.508C152.912 454.641 164.842 456.208 179.786 455.846C214.131 454.882 231.485 442.831 250.525 432.467C269.566 422.103 286.92 413.427 321.265 414.752C336.088 415.355 348.019 417.765 358.624 420.898C396.464 432.226 407.431 454.4 462.866 454.762" stroke="#24162B" stroke-width="1.4071" stroke-miterlimit="10"/>
<path d="M-254.657 400.894C-185.483 401.255 -185.845 447.049 -116.672 447.411C-92.5695 447.531 -78.7108 439.457 -63.0444 434.034C-44.0036 427.526 -33.3987 422.344 -14.2374 415.837C1.54949 410.414 15.2877 402.34 39.3899 402.46C94.5839 402.822 105.309 432.829 143.27 443.916C153.875 447.049 165.806 448.495 180.508 447.893C214.613 446.808 231.725 434.516 251.007 424.273C270.289 414.029 287.401 405.955 321.506 407.401C336.208 408.124 348.139 410.534 358.744 413.668C396.705 424.755 407.551 445.844 462.745 446.085" stroke="#24162B" stroke-width="1.4071" stroke-miterlimit="10"/>
<path d="M-254.657 393.302C-185.966 393.663 -186.207 439.457 -117.515 439.819C-93.0516 439.939 -79.4339 431.142 -63.1649 425.839C-43.6421 419.452 -33.1577 415.234 -13.6349 408.847C2.63408 403.545 16.2518 394.748 40.7155 394.868C95.6685 395.23 106.273 425.598 144.355 436.444C155.08 439.457 166.89 440.903 181.472 440.18C215.215 438.855 232.328 426.322 251.73 416.319C271.132 406.317 288.245 398.724 321.988 400.412C336.57 401.255 348.38 403.665 359.105 406.678C397.187 417.524 407.792 437.409 462.865 437.65" stroke="#24162B" stroke-width="1.4071" stroke-miterlimit="10"/>
<path d="M-254.657 385.589C-186.448 385.95 -186.689 431.745 -118.479 432.106C-93.6541 432.227 -80.2774 422.827 -63.5264 417.645C-43.5216 411.378 -33.2782 408.004 -13.2734 401.858C3.47766 396.676 16.8544 387.156 41.6796 387.397C96.5121 387.758 106.876 418.368 145.078 428.973C155.803 431.986 167.614 433.191 182.075 432.468C215.456 430.78 232.448 418.247 252.092 408.486C271.735 398.604 288.607 391.494 322.109 393.543C336.57 394.386 348.38 396.917 359.105 399.93C397.428 410.535 407.792 429.214 462.624 429.575" stroke="#24162B" stroke-width="1.4071" stroke-miterlimit="10"/>
<path d="M-254.536 377.876C-186.688 378.238 -187.05 424.032 -119.202 424.393C-93.8946 424.514 -80.8794 414.391 -63.5258 409.329C-43.039 403.183 -33.0366 400.773 -12.5497 394.627C4.80385 389.445 17.819 379.443 43.1263 379.563C97.7178 379.925 107.841 410.896 146.284 421.26C157.13 424.152 168.819 425.357 183.281 424.514C216.421 422.586 233.172 409.932 253.056 400.291C272.941 390.65 289.692 384.022 322.832 386.312C337.173 387.276 348.983 389.807 359.709 392.819C398.151 403.304 408.274 420.657 462.986 421.019" stroke="#24162B" stroke-width="1.4071" stroke-miterlimit="10"/>
<path d="M-254.536 370.284C-187.17 370.645 -187.411 416.44 -120.045 416.801C-94.3766 416.922 -81.6025 406.196 -63.7669 401.135C-42.798 395.23 -33.0366 393.543 -12.0677 387.638C5.76795 382.576 18.6626 371.851 44.2109 371.971C98.6819 372.333 108.564 403.545 147.127 413.788C157.973 416.681 169.783 417.645 184.004 416.801C216.783 414.632 233.534 401.858 253.538 392.337C273.664 382.938 290.294 376.792 323.073 379.322C337.293 380.407 348.983 383.058 359.95 385.95C398.513 396.194 408.516 412.463 462.866 412.704" stroke="#24162B" stroke-width="1.4071" stroke-miterlimit="10"/>
<path d="M-254.536 362.571C-187.652 362.933 -187.893 408.727 -121.01 409.089C-94.9792 409.209 -82.4461 397.76 -64.0079 392.82C-42.5569 387.035 -33.0366 386.312 -11.5856 380.527C6.85254 375.586 19.3857 364.138 45.416 364.258C99.646 364.62 109.407 396.194 148.091 406.196C159.058 409.088 170.747 409.932 184.847 408.847C217.385 406.437 233.895 393.543 254.141 384.263C274.387 374.984 290.897 369.44 323.435 372.212C337.535 373.417 349.224 376.069 360.191 378.84C398.875 388.843 408.636 403.907 462.866 404.268" stroke="#24162B" stroke-width="1.4071" stroke-miterlimit="10"/>
<path d="M-254.416 354.858C-187.893 355.22 -188.255 401.014 -121.733 401.376C-95.3411 401.496 -83.049 389.445 -64.1288 384.504C-42.1958 378.84 -32.7959 379.081 -10.8629 373.417C8.05727 368.476 20.3494 356.425 46.7413 356.546C100.851 356.907 110.371 388.722 149.055 398.483C160.022 401.255 171.711 401.978 185.69 400.894C217.867 398.363 234.377 385.107 254.743 376.068C275.23 367.03 291.619 361.969 323.796 364.861C337.775 366.186 349.465 368.838 360.431 371.609C399.236 381.371 408.877 395.23 462.866 395.591" stroke="#24162B" stroke-width="1.4071" stroke-miterlimit="10"/>
<path d="M-254.416 347.266C-188.376 347.628 -188.617 393.422 -122.577 393.783C-95.8231 393.904 -83.6515 381.13 -64.2493 376.43C-41.8342 370.886 -32.6754 371.971 -10.2604 366.427C9.1419 361.607 21.3135 348.833 48.0669 349.074C101.935 349.435 111.215 381.491 150.14 391.132C161.227 393.904 172.796 394.506 186.775 393.301C218.71 390.53 234.979 377.153 255.587 368.356C276.315 359.438 292.463 354.979 324.398 358.112C338.257 359.438 349.947 362.209 360.913 364.981C399.838 374.622 409.238 387.276 463.107 387.517" stroke="#24162B" stroke-width="1.4071" stroke-miterlimit="10"/>
<path d="M-254.295 339.554C-188.737 339.915 -188.978 385.709 -123.421 386.071C-96.3056 386.191 -84.375 372.815 -64.4907 368.115C-41.5936 362.692 -32.6758 364.74 -9.77875 359.317C10.2261 354.618 22.0361 341.12 49.1511 341.361C102.899 341.723 111.937 374.14 150.983 383.54C162.19 386.191 173.759 386.794 187.498 385.468C219.072 382.456 235.22 368.958 256.068 360.282C276.917 351.605 293.065 347.628 324.639 351.002C338.377 352.448 349.946 355.22 361.154 357.992C400.199 367.392 409.358 378.84 463.106 379.081" stroke="#24162B" stroke-width="1.4071" stroke-miterlimit="10"/>
<path d="M-254.295 331.961C-189.099 332.323 -189.461 378.117 -124.264 378.479C-96.7876 378.599 -85.0981 364.499 -64.6112 359.92C-41.2321 354.617 -32.5553 357.51 -9.1762 352.328C11.3107 347.748 22.8797 333.649 50.4767 333.769C103.984 334.131 112.901 366.789 152.067 375.948C163.275 378.599 174.844 378.961 188.462 377.515C219.795 374.261 235.823 360.643 256.912 352.087C278.001 343.53 294.029 340.156 325.242 343.771C338.859 345.338 350.428 348.23 361.636 350.761C400.802 359.92 409.84 370.163 463.347 370.525" stroke="#24162B" stroke-width="1.4071" stroke-miterlimit="10"/>
<path d="M-254.295 324.249C-189.581 324.61 -189.822 370.404 -125.108 370.766C-97.2697 370.886 -85.8211 356.184 -64.8522 351.605C-41.1116 346.423 -32.4348 350.279 -8.69414 345.097C12.2748 340.518 23.7233 325.815 51.5613 325.936C104.827 326.297 113.624 359.317 152.911 368.235C164.239 370.766 175.688 371.127 189.185 369.561C220.156 366.066 236.064 352.328 257.394 344.012C278.724 335.697 294.511 332.805 325.483 336.661C338.98 338.348 350.549 341.241 361.756 343.771C401.043 352.689 409.84 361.727 463.227 362.089" stroke="#24162B" stroke-width="1.4071" stroke-miterlimit="10"/>
<path d="M-254.174 316.536C-189.942 316.897 -190.183 362.692 -125.951 363.053C-97.6306 363.174 -86.5436 347.748 -64.9721 343.289C-40.7494 338.348 -32.3137 343.048 -8.09097 337.987C13.4805 333.528 24.5675 318.103 52.8876 318.223C106.033 318.585 114.469 351.846 153.876 360.643C165.204 363.174 176.652 363.294 190.15 361.727C220.88 357.992 236.546 344.133 258.118 335.938C279.569 327.864 295.356 325.454 325.965 329.431C339.342 331.238 350.791 334.13 362.119 336.661C401.526 345.459 410.202 353.292 463.348 353.533" stroke="#24162B" stroke-width="1.4071" stroke-miterlimit="10"/>
<path d="M-254.174 308.944C-190.304 309.305 -190.665 355.1 -126.794 355.461C-98.1127 355.582 -87.2667 339.433 -65.2132 335.095C-40.5084 330.274 -32.3137 335.818 -7.60893 330.997C14.4446 326.659 25.2906 310.51 53.9722 310.631C106.876 310.993 115.192 344.615 154.719 353.171C166.168 355.702 177.616 355.702 190.873 354.015C221.241 350.038 236.908 335.938 258.6 327.985C280.292 320.031 295.838 318.103 326.206 322.441C339.463 324.369 350.911 327.261 362.36 329.792C401.887 338.349 410.323 344.977 463.348 345.338" stroke="#24162B" stroke-width="1.4071" stroke-miterlimit="10"/>
<path d="M-254.174 301.231C-190.786 301.593 -191.027 347.387 -127.638 347.748C-98.5947 347.869 -87.9897 331.118 -65.3337 326.9C-40.1469 322.2 -32.1932 328.708 -6.88589 324.008C15.7702 319.79 26.3751 302.918 55.4182 303.159C108.202 303.4 116.276 337.384 155.924 345.7C167.373 348.11 178.821 348.11 191.957 346.182C222.085 341.964 237.51 327.744 259.443 320.031C281.376 312.318 296.802 310.872 326.809 315.451C339.945 317.5 351.393 320.392 362.842 322.803C402.49 331.118 410.805 336.541 463.468 336.902" stroke="#24162B" stroke-width="1.4071" stroke-miterlimit="10"/>
<path d="M-254.054 293.518C-191.147 293.88 -191.389 339.674 -128.482 340.036C-99.0772 340.156 -88.7132 322.682 -65.5751 318.585C-39.9063 314.005 -32.0731 321.477 -6.40425 316.777C16.7338 312.68 27.0978 295.085 56.5025 295.326C109.045 295.567 116.999 329.792 156.768 337.987C168.337 340.397 179.665 340.156 192.68 338.228C222.446 333.769 237.751 319.428 259.925 311.836C282.099 304.244 297.283 303.4 327.049 308.221C340.065 310.269 351.393 313.282 362.962 315.692C402.73 323.887 410.805 328.105 463.347 328.346" stroke="#24162B" stroke-width="1.4071" stroke-miterlimit="10"/>
<path d="M-254.054 285.926C-191.509 286.288 -191.871 332.082 -129.325 332.443C-99.5592 332.564 -89.4363 314.487 -65.6956 310.39C-39.5448 305.931 -31.9526 314.246 -5.8017 309.787C17.8184 305.69 27.9413 287.613 57.8281 287.734C110.25 287.975 117.963 322.562 157.852 330.515C169.421 332.805 180.749 332.564 193.764 330.515C223.169 325.815 238.474 311.354 260.768 304.003C283.063 296.652 298.247 296.29 327.652 301.352C340.547 303.521 351.875 306.654 363.444 308.944C403.333 316.898 411.287 319.91 463.588 320.151" stroke="#24162B" stroke-width="1.4071" stroke-miterlimit="10"/>
<path d="M-254.054 278.214C-191.991 278.575 -192.232 324.369 -130.169 324.731C-100.041 324.851 -90.1593 306.052 -65.9366 302.075C-39.3037 297.736 -31.9526 307.016 -5.31966 302.677C18.903 298.7 28.785 279.901 58.9127 280.021C111.094 280.262 118.566 315.09 158.575 322.923C170.265 325.213 181.593 324.731 194.367 322.682C223.531 317.741 238.594 303.159 261.13 295.929C283.666 288.698 298.729 288.939 327.773 294.242C340.547 296.531 351.875 299.665 363.564 301.954C403.574 309.667 411.287 311.475 463.468 311.836" stroke="#24162B" stroke-width="1.4071" stroke-miterlimit="10"/>
<path d="M-253.933 270.501C-192.352 270.862 -192.593 316.656 -130.891 317.018C-100.402 317.138 -90.7613 297.616 -65.9361 293.759C-38.8211 289.541 -31.5905 299.785 -4.59601 295.567C20.1087 291.711 29.7496 272.188 60.3594 272.308C112.3 272.549 119.651 307.739 159.781 315.21C171.591 317.379 182.798 316.897 195.452 314.608C224.254 309.546 239.318 294.603 261.974 287.613C284.751 280.624 299.574 281.347 328.376 286.77C341.029 289.18 352.237 292.313 364.047 294.482C404.177 302.075 411.649 302.557 463.709 302.918" stroke="#24162B" stroke-width="1.4071" stroke-miterlimit="10"/>
<path d="M-253.933 262.909C-192.714 263.27 -192.955 309.064 -131.856 309.426C-101.005 309.546 -91.6049 289.421 -66.2976 285.685C-38.8211 281.588 -31.711 292.675 -4.23447 288.578C21.0728 284.842 30.4727 264.596 61.3235 264.837C113.143 265.078 120.253 300.508 160.504 307.859C172.314 310.028 183.522 309.426 196.055 307.016C224.616 301.713 239.439 286.649 262.336 279.901C285.233 273.032 300.056 274.357 328.496 280.021C341.029 282.552 352.237 285.685 364.047 287.854C404.298 295.206 411.649 294.603 463.468 294.844" stroke="#24162B" stroke-width="1.4071" stroke-miterlimit="10"/>
<path d="M-253.813 255.196C-193.075 255.558 -193.316 301.352 -132.579 301.593C-101.246 301.713 -92.2078 280.865 -66.298 277.25C-38.3394 273.273 -31.4703 285.324 -3.5118 281.347C22.2775 277.732 31.4363 256.763 62.7692 257.004C114.348 257.245 121.338 292.916 161.709 300.147C173.639 302.195 184.726 301.472 197.259 299.062C225.459 293.519 240.161 278.334 263.299 271.706C286.437 265.078 301.019 266.886 329.219 272.791C341.631 275.442 352.839 278.575 364.649 280.744C405.02 287.855 412.13 286.047 463.83 286.288" stroke="#24162B" stroke-width="1.4071" stroke-miterlimit="10"/>
<path d="M-253.813 247.483C-193.558 247.845 -193.799 293.639 -133.423 293.88C-101.728 294.001 -92.8104 272.429 -66.539 268.934C-38.0984 265.078 -31.4703 278.093 -2.90925 274.237C23.3621 270.621 32.2799 249.05 63.9743 249.291C115.432 249.532 122.061 285.565 162.673 292.434C174.603 294.483 185.69 293.639 198.103 291.108C226.062 285.324 240.643 270.019 263.902 263.511C287.281 257.124 301.742 259.414 329.58 265.56C341.872 268.211 352.959 271.586 364.89 273.634C405.382 280.624 412.371 277.491 463.83 277.852" stroke="#24162B" stroke-width="1.4071" stroke-miterlimit="10"/>
<path d="M-253.813 239.891C-193.919 240.253 -194.16 286.047 -134.387 286.288C-102.331 286.529 -93.6539 264.234 -66.9005 260.74C-37.9779 257.004 -31.4703 270.862 -2.54769 267.127C24.3263 263.632 33.003 241.458 64.9384 241.578C116.156 241.819 122.663 278.093 163.396 284.842C175.447 286.89 186.534 285.806 198.706 283.155C226.303 277.129 240.764 261.704 264.264 255.437C287.763 249.17 302.104 252.063 329.701 258.45C341.873 261.222 352.96 264.596 365.011 266.524C405.623 273.273 412.371 269.055 463.709 269.296" stroke="#24162B" stroke-width="1.4071" stroke-miterlimit="10"/>
<path d="M-253.693 232.178C-194.281 232.54 -194.522 278.334 -135.11 278.575C-102.693 278.816 -94.2569 255.798 -66.9009 252.424C-37.4963 248.809 -31.2297 263.632 -1.82504 260.016C25.5309 256.642 33.9667 233.745 66.3842 233.865C117.481 234.106 123.747 270.742 164.48 277.249C176.531 279.177 187.618 278.093 199.669 275.321C227.025 269.055 241.246 253.388 264.986 247.363C288.727 241.337 302.947 244.711 330.183 251.339C342.234 254.232 353.321 257.606 365.372 259.534C406.104 266.042 412.733 260.619 463.709 260.86" stroke="#24162B" stroke-width="1.4071" stroke-miterlimit="10"/>
<path d="M-253.693 224.466C-194.763 224.827 -195.004 270.622 -135.954 270.863C-103.175 271.104 -94.98 247.363 -67.142 244.23C-37.2552 240.735 -31.2297 256.522 -1.343 253.027C26.6155 249.773 34.6898 226.153 67.4687 226.394C118.324 226.635 124.47 263.511 165.324 269.898C177.495 271.827 188.462 270.622 200.513 267.729C227.507 261.222 241.728 245.435 265.709 239.65C289.691 233.745 303.791 237.722 330.665 244.471C342.595 247.483 353.562 250.858 365.733 252.786C406.586 259.173 412.974 252.424 463.829 252.786" stroke="#24162B" stroke-width="1.4071" stroke-miterlimit="10"/>
<path d="M-253.693 216.874C-195.125 217.235 -195.366 263.029 -136.918 263.27C-103.777 263.511 -95.8236 239.168 -67.383 236.035C-37.0142 232.66 -31.2297 249.291 -0.860949 246.037C27.5796 242.904 35.5333 218.561 68.6739 218.802C119.409 219.043 125.314 256.16 166.288 262.306C178.58 264.114 189.426 262.788 201.356 259.896C228.11 253.147 242.089 237.24 266.312 231.576C290.534 225.912 304.393 230.371 331.026 237.36C342.836 240.494 353.803 243.868 365.974 245.796C406.948 251.942 413.215 243.988 463.829 244.35" stroke="#24162B" stroke-width="1.4071" stroke-miterlimit="10"/>
<path d="M-253.572 209.161C-195.486 209.522 -195.727 255.196 -137.64 255.557C-104.138 255.798 -96.4255 230.732 -67.5029 227.719C-36.6521 224.466 -30.9881 242.06 -0.257776 238.806C28.6648 235.794 36.3775 210.727 69.8796 210.968C120.374 211.209 126.038 248.688 167.252 254.593C179.545 256.401 190.511 254.955 202.201 251.822C228.592 244.952 242.572 228.804 266.915 223.26C291.258 217.717 305.117 222.778 331.388 230.009C343.078 233.263 354.044 236.758 366.336 238.445C407.431 244.35 413.456 235.312 463.95 235.553" stroke="#24162B" stroke-width="1.4071" stroke-miterlimit="10"/>
<path d="M-253.572 201.448C-195.968 201.81 -196.209 247.483 -138.484 247.845C-104.5 248.086 -97.1486 222.296 -67.6234 219.404C-36.4111 216.271 -30.8676 234.83 0.344754 231.696C29.8699 228.804 37.2211 203.015 71.2052 203.256C121.458 203.497 127.002 241.217 168.337 247.001C180.75 248.688 191.596 247.122 203.285 243.988C229.316 236.878 243.174 220.609 267.758 215.307C292.343 210.004 305.96 215.548 331.991 223.019C343.56 226.394 354.406 229.889 366.818 231.576C408.033 237.36 413.818 226.996 464.191 227.237" stroke="#24162B" stroke-width="1.4071" stroke-miterlimit="10"/>
<path d="M-253.572 193.856C-196.329 194.217 -196.57 239.891 -139.448 240.253C-105.102 240.494 -97.9922 214.102 -67.985 211.21C-36.2906 208.197 -30.9881 227.72 0.706272 224.707C30.7135 221.935 37.9442 195.543 72.1693 195.664C122.302 195.905 127.604 233.866 168.94 239.53C181.352 241.217 192.198 239.53 203.767 236.276C229.557 228.925 243.174 212.535 268 207.353C292.825 202.292 306.322 208.317 331.991 216.03C343.439 219.404 354.285 223.02 366.698 224.707C408.033 230.25 413.697 218.681 463.83 219.043" stroke="#24162B" stroke-width="1.4071" stroke-miterlimit="10"/>
<path d="M-253.452 186.143C-196.691 186.505 -196.932 232.178 -140.171 232.54C-105.464 232.781 -98.5951 205.666 -67.9854 202.894C-35.8089 200.002 -30.7475 220.368 1.54946 217.476C32.1592 214.704 39.0284 187.71 73.7355 187.83C123.627 188.071 128.809 226.394 170.265 231.696C182.798 233.263 193.523 231.576 204.972 228.201C230.4 220.609 244.017 203.979 268.963 199.158C293.909 194.217 307.406 200.845 332.713 208.799C344.041 212.294 354.887 215.909 367.3 217.596C408.756 223.019 414.179 210.245 464.191 210.486" stroke="#24162B" stroke-width="1.4071" stroke-miterlimit="10"/>
<path d="M-253.452 178.43C-197.173 178.792 -197.414 224.466 -141.015 224.827C-105.946 225.068 -99.3182 197.23 -68.2264 194.699C-35.5679 191.928 -30.627 213.258 2.0315 210.486C33.1233 207.835 39.7514 180.118 74.8201 180.359C124.591 180.6 129.532 219.163 171.108 224.345C183.641 225.912 194.487 223.984 205.695 220.489C230.882 212.656 244.258 195.904 269.445 191.205C294.632 186.505 307.888 193.615 332.955 201.689C344.162 205.304 354.887 208.92 367.541 210.486C409.238 215.668 414.42 201.689 464.191 201.93" stroke="#24162B" stroke-width="1.4071" stroke-miterlimit="10"/>
<path d="M-253.331 170.838C-197.413 171.2 -197.655 216.874 -141.858 217.235C-106.428 217.476 -100.041 189.036 -68.3463 186.505C-35.2058 183.854 -30.5059 206.148 2.63463 203.497C34.2085 200.966 40.7161 172.526 76.1463 172.767C125.676 173.008 130.376 211.812 172.194 216.874C184.847 218.44 195.573 216.392 206.78 212.776C231.605 204.702 244.862 187.83 270.289 183.251C295.717 178.672 308.853 186.384 333.558 194.7C344.645 198.435 355.37 202.171 368.024 203.617C409.841 208.558 414.782 193.374 464.433 193.735" stroke="#24162B" stroke-width="1.4071" stroke-miterlimit="10"/>
<path d="M-253.331 163.126C-197.896 163.487 -198.137 209.161 -142.702 209.522C-106.91 209.763 -100.764 180.6 -68.5873 178.19C-34.9648 175.659 -30.5059 198.797 3.11666 196.387C35.2931 193.977 41.4391 164.813 77.2309 165.054C126.64 165.295 131.099 204.461 173.037 209.281C185.691 210.728 196.416 208.679 207.503 204.943C232.087 196.628 245.223 179.636 270.771 175.297C296.32 170.959 309.335 179.154 333.799 187.71C344.765 191.566 355.491 195.302 368.144 196.748C410.082 201.569 414.903 185.059 464.192 185.42" stroke="#24162B" stroke-width="1.4071" stroke-miterlimit="10"/>
<path d="M-253.331 155.413C-198.378 155.774 -198.619 201.448 -143.545 201.81C-107.392 202.051 -101.487 172.164 -68.7078 169.874C-34.6032 167.464 -30.3854 191.566 3.71922 189.156C36.3777 186.866 42.2827 156.979 78.5565 157.221C127.725 157.462 132.063 196.869 174.122 201.448C186.896 202.894 197.501 200.604 208.467 196.869C232.69 188.433 245.705 171.2 271.495 166.982C297.284 162.764 310.179 171.561 334.281 180.359C345.127 184.335 355.732 188.071 368.506 189.517C410.564 194.097 415.144 176.502 464.312 176.743" stroke="#24162B" stroke-width="1.4071" stroke-miterlimit="10"/>
<path d="M-253.21 147.821C-198.619 148.182 -198.86 193.856 -144.389 194.217C-107.874 194.458 -102.21 163.969 -68.9492 161.679C-34.3626 159.39 -30.2652 184.456 4.20089 182.166C37.4619 179.997 43.1259 149.508 79.6407 149.628C128.689 149.869 132.786 189.517 174.844 193.976C187.739 195.302 198.344 193.012 209.069 189.035C233.051 180.359 245.825 162.884 271.856 158.908C297.886 154.931 310.54 164.21 334.401 173.248C345.126 177.346 355.731 181.082 368.505 182.407C410.684 186.746 415.143 167.946 464.071 168.187" stroke="#24162B" stroke-width="1.4071" stroke-miterlimit="10"/>
<path d="M-253.21 140.108C-199.101 140.47 -199.342 186.143 -145.233 186.505C-108.236 186.746 -102.813 155.534 -69.0698 153.485C-34.1216 151.316 -30.1447 177.346 4.80345 175.177C38.5465 173.128 43.9695 141.916 80.9663 142.157C129.773 142.398 133.75 182.408 175.929 186.625C188.824 187.951 199.429 185.541 210.154 181.443C233.774 172.526 246.548 154.931 272.699 151.195C298.971 147.459 311.504 157.221 335.003 166.5C345.608 170.597 356.213 174.574 369.108 175.779C411.407 179.997 415.625 159.872 464.432 160.233" stroke="#24162B" stroke-width="1.4071" stroke-miterlimit="10"/>
<path d="M-253.21 132.516C-199.583 132.877 -199.824 178.551 -146.076 178.913C-108.718 179.154 -103.536 147.218 -69.3108 145.29C-33.8806 143.241 -30.1447 170.115 5.406 168.187C39.6311 166.259 44.8131 134.324 82.1714 134.565C130.737 134.806 134.473 175.056 176.893 179.033C189.908 180.238 200.393 177.707 210.998 173.61C234.377 164.451 246.91 146.736 273.302 143.121C299.694 139.506 312.227 149.869 335.365 159.269C345.849 163.487 356.334 167.464 369.349 168.669C411.769 172.646 415.866 151.436 464.432 151.677" stroke="#24162B" stroke-width="1.4071" stroke-miterlimit="10"/>
<path d="M-253.09 124.803C-199.825 125.165 -200.066 170.838 -146.92 171.2C-109.2 171.441 -104.259 138.782 -69.4317 136.975C-33.5194 135.046 -30.0246 162.884 6.00815 160.956C40.8358 159.149 45.7768 126.49 83.4967 126.731C131.942 126.972 135.437 167.464 177.977 171.32C190.992 172.525 201.477 169.874 211.961 165.656C234.979 156.256 247.512 138.421 274.024 135.046C300.657 131.672 312.949 142.518 335.847 152.159C346.211 156.497 356.695 160.474 369.71 161.679C412.25 165.536 416.107 143 464.552 143.241" stroke="#24162B" stroke-width="1.4071" stroke-miterlimit="10"/>
<path d="M-253.09 117.09C-200.307 117.331 -200.548 163.126 -147.764 163.487C-109.682 163.728 -104.982 130.467 -69.6727 128.659C-33.2784 126.852 -29.9041 155.654 6.49019 153.846C41.7999 152.039 46.4998 118.777 84.5813 119.019C132.786 119.26 136.16 160.113 178.821 163.728C191.957 164.813 202.441 162.041 212.684 157.703C235.461 148.062 247.753 130.106 274.507 126.852C301.38 123.598 313.552 135.046 336.088 144.928C346.331 149.387 356.815 153.364 369.831 154.449C412.492 158.064 416.107 134.323 464.432 134.685" stroke="#24162B" stroke-width="1.4071" stroke-miterlimit="10"/>
<path d="M-253.09 109.498C-200.789 109.739 -201.03 155.533 -148.607 155.895C-110.164 156.136 -105.705 122.152 -69.7932 120.465C-32.9169 118.778 -29.7836 148.544 7.09275 146.857C43.005 145.17 47.3434 111.306 85.9069 111.426C133.991 111.667 137.124 152.762 179.785 156.257C192.921 157.341 203.405 154.449 213.648 149.99C236.064 140.229 248.235 121.911 275.35 118.898C302.345 115.885 314.396 127.816 336.811 137.939C346.934 142.518 357.297 146.495 370.554 147.58C413.335 151.075 416.83 126.129 464.914 126.37" stroke="#24162B" stroke-width="1.4071" stroke-miterlimit="10"/>
<path d="M-252.969 101.786C-201.029 102.027 -201.27 147.821 -149.45 148.182C-110.646 148.423 -106.428 113.716 -70.0337 112.27C-32.6753 110.703 -29.783 141.313 7.57539 139.747C43.9697 138.18 48.1876 103.593 86.9921 103.834C134.835 104.075 137.848 145.411 180.629 148.664C193.885 149.628 204.249 146.736 214.372 142.157C236.426 132.154 248.597 113.716 275.833 110.944C303.068 108.052 314.999 120.585 337.052 130.949C347.055 135.649 357.419 139.747 370.675 140.711C413.577 143.964 416.83 117.814 464.794 118.055" stroke="#24162B" stroke-width="1.4071" stroke-miterlimit="10"/>
<path d="M-252.969 94.0728C-201.511 94.3138 -201.752 140.108 -150.294 140.469C-111.128 140.71 -107.151 105.401 -70.2747 103.955C-32.4342 102.509 -29.783 134.082 8.05746 132.636C44.9338 131.19 48.9107 95.8804 88.0767 96.1214C135.799 96.3625 138.45 138.059 181.473 141.072C194.849 142.036 205.093 138.903 215.095 134.323C236.908 124.08 248.838 105.521 276.315 102.87C303.791 100.219 315.481 113.354 337.293 123.718C347.175 128.539 357.539 132.636 370.795 133.6C413.818 136.613 416.951 109.257 464.553 109.498" stroke="#24162B" stroke-width="1.4071" stroke-miterlimit="10"/>
<path d="M-252.849 86.4807C-201.873 86.7217 -202.114 132.516 -151.017 132.877C-111.49 133.118 -107.754 97.0857 -70.2751 95.7601C-31.9526 94.4344 -29.4219 126.972 8.7801 125.647C46.259 124.321 49.9948 88.2884 89.5224 88.5294C137.004 88.7704 139.534 130.708 182.677 133.6C196.054 134.444 206.418 131.311 216.179 126.49C237.63 116.006 249.44 97.3267 277.158 94.796C304.755 92.3857 316.444 106.003 337.895 116.608C347.657 121.549 357.9 125.647 371.277 126.49C414.42 129.383 417.312 100.701 464.793 101.063" stroke="#24162B" stroke-width="1.4071" stroke-miterlimit="10"/>
<path d="M-252.849 78.7681C-202.235 79.0091 -202.476 124.803 -151.981 125.165C-111.972 125.406 -108.598 88.65 -70.6366 87.4449C-31.8321 86.2397 -29.5424 119.742 9.14162 118.537C47.1026 117.332 50.5974 80.5757 90.4865 80.8168C137.847 81.0578 140.137 123.237 183.4 126.008C196.898 126.852 207.141 123.598 216.902 118.657C238.112 107.932 249.802 89.132 277.64 86.8423C305.478 84.5526 316.927 98.7729 338.136 109.619C347.777 114.56 358.021 118.778 371.518 119.621C414.781 122.273 417.553 92.5063 464.793 92.7473" stroke="#24162B" stroke-width="1.4071" stroke-miterlimit="10"/>
<path d="M-252.849 71.0552C-202.717 71.2962 -202.958 117.09 -152.825 117.331C-112.454 117.572 -109.321 80.0935 -70.7571 79.0089C-31.5911 77.9243 -29.4219 112.39 9.86469 111.185C48.4282 110.101 51.5615 72.6218 91.9326 72.8628C139.052 73.1039 141.222 115.644 184.485 118.054C197.982 118.778 208.226 115.403 217.867 110.462C238.715 99.6163 250.284 80.5755 278.363 78.4064C306.442 76.3577 317.77 91.06 338.618 102.147C348.139 107.208 358.382 111.547 371.88 112.27C415.263 114.801 417.794 83.7088 464.914 83.9499" stroke="#24162B" stroke-width="1.4071" stroke-miterlimit="10"/>
<path d="M-252.728 63.4629C-203.078 63.7039 -203.319 109.498 -153.548 109.739C-112.815 109.98 -109.923 71.8987 -70.8771 70.8141C-31.229 69.85 -29.3008 105.16 10.4678 104.196C49.5134 103.231 52.5261 65.15 93.1383 65.2706C140.017 65.5116 141.945 108.293 185.45 110.583C199.067 111.306 209.19 107.811 218.711 102.749C239.318 91.6624 250.767 72.3807 278.966 70.573C307.286 68.6449 318.494 83.9498 338.981 95.2778C348.38 100.46 358.503 104.798 372.121 105.521C415.626 107.811 418.036 75.514 464.915 75.755" stroke="#24162B" stroke-width="1.4071" stroke-miterlimit="10"/>
<path d="M-252.728 55.7505C-203.439 55.9915 -203.68 101.786 -154.512 102.027C-113.417 102.268 -110.766 63.4632 -71.1181 62.6196C-30.9879 61.776 -29.1803 98.0498 10.9499 97.2062C50.4774 96.3627 53.2492 57.5581 94.3434 57.7992C141.102 58.0402 142.789 101.063 186.414 103.232C200.032 103.834 210.275 100.34 219.554 95.037C239.8 83.709 251.128 64.3068 279.569 62.6196C308.009 60.9325 319.096 76.7194 339.342 88.2884C348.621 93.5909 358.744 97.9293 372.362 98.6524C415.987 100.822 418.156 67.3195 464.915 67.5606" stroke="#24162B" stroke-width="1.4071" stroke-miterlimit="10"/>
<path d="M-252.728 48.0376C-203.921 48.2786 -204.162 94.0728 -155.355 94.3138C-113.899 94.5548 -111.369 55.0272 -71.3591 54.3042C-30.7469 53.5811 -29.1803 90.819 11.4319 89.9754C51.5621 89.2523 53.9723 49.7247 95.428 49.9658C141.945 50.2068 143.512 93.4702 187.257 95.3984C200.996 96.0009 211.119 92.2651 220.398 86.9626C240.403 75.3936 251.49 55.8708 280.171 54.3042C308.853 52.7375 319.819 69.127 339.704 80.8166C348.863 86.2396 358.985 90.578 372.724 91.1805C416.469 93.1087 418.397 58.4015 465.035 58.6426" stroke="#24162B" stroke-width="1.4071" stroke-miterlimit="10"/>
<path d="M-252.608 40.4456C-204.283 40.6866 -204.524 86.4807 -156.079 86.7217C-114.261 86.9628 -111.972 46.7121 -71.3595 46.1096C-30.2652 45.507 -28.9396 83.709 12.1546 82.9859C52.7668 82.3834 55.0565 42.1327 96.8738 42.3737C143.27 42.6148 144.596 86.2397 188.462 87.9269C202.321 88.5294 212.323 84.6731 221.482 79.2501C241.125 67.5605 252.212 47.7967 281.014 46.4711C309.937 45.1455 320.663 62.017 340.306 73.9476C349.344 79.4911 359.347 83.8295 373.205 84.432C417.071 86.1192 418.879 50.2069 465.276 50.448" stroke="#24162B" stroke-width="1.4071" stroke-miterlimit="10"/>
<path d="M-252.608 32.7327C-204.645 32.9737 -204.886 78.7678 -156.922 79.0089C-114.743 79.2499 -112.695 38.3967 -71.6005 37.7941C-30.0242 37.3121 -28.9396 76.3576 12.6366 75.8756C53.8514 75.3935 55.7795 34.4198 97.9584 34.6608C144.114 34.9019 145.319 78.7678 189.306 80.3345C203.164 80.8165 213.167 76.9602 222.205 71.4167C241.607 59.4861 252.453 39.6018 281.496 38.3967C310.54 37.1916 321.265 54.6657 340.547 66.8373C349.465 72.5013 359.467 76.9602 373.326 77.4422C417.312 79.0089 418.879 41.771 465.035 42.1325" stroke="#24162B" stroke-width="1.4071" stroke-miterlimit="10"/>
<path d="M-252.608 25.02C-205.006 25.3816 -205.368 71.0552 -157.766 71.4167C-115.225 71.6577 -113.418 29.961 -71.721 29.5994C-29.6627 29.1174 -28.6986 69.368 13.2392 68.886C54.936 68.5245 56.6231 26.8277 99.284 27.0687C145.319 27.3097 146.163 71.4167 190.27 72.8629C204.249 73.2244 214.251 69.2475 223.049 63.5835C242.089 51.4119 252.815 31.2866 282.099 30.3225C311.383 29.3584 321.868 47.3145 340.908 59.7272C349.706 65.5117 359.708 69.9706 373.567 70.4526C417.674 71.8988 419.12 33.4558 465.035 33.6968" stroke="#24162B" stroke-width="1.4071" stroke-miterlimit="10"/>
<path d="M-252.488 17.428C-205.368 17.669 -205.73 63.4632 -158.61 63.7042C-115.587 63.9452 -114.141 21.6459 -71.9624 21.4048C-29.4221 21.0433 -28.699 62.258 13.8413 61.776C56.0202 61.535 57.5868 19.2356 100.489 19.4767C146.283 19.7177 147.006 64.0657 191.233 65.2708C205.213 65.6324 215.215 61.535 224.012 55.7505C242.812 43.3378 253.417 23.092 282.822 22.3689C312.347 21.6459 322.711 40.084 341.39 52.7377C350.067 58.6427 359.949 63.1016 373.928 63.4632C418.155 64.6683 419.361 25.0202 465.155 25.2612" stroke="#24162B" stroke-width="1.4071" stroke-miterlimit="10"/>
<path d="M-252.488 9.71509C-205.85 9.95611 -206.091 55.7503 -159.453 55.9913C-116.069 56.2323 -114.864 13.2099 -72.0829 13.0894C-29.0605 12.8484 -28.5785 54.9067 14.4439 54.6657C57.2253 54.5452 58.4304 11.5228 101.814 11.7638C147.367 12.0048 147.97 56.5938 192.318 57.6784C206.418 57.9195 216.3 53.8221 224.977 47.9171C243.415 35.2634 253.899 14.8971 283.545 14.2945C313.311 13.6919 323.434 32.7327 341.872 45.6273C350.428 51.6529 360.31 56.2323 374.41 56.4733C418.758 57.5579 419.843 16.5842 465.396 16.8252" stroke="#24162B" stroke-width="1.4071" stroke-miterlimit="10"/>
<path d="M-252.366 2.00244C-206.211 2.36397 -206.452 48.0376 -160.296 48.3992C-116.55 48.6402 -115.586 4.8947 -72.3229 4.8947C-28.8184 4.77419 -28.5774 47.7966 14.927 47.6761C58.1904 47.6761 59.1546 3.93062 102.9 4.17164C148.333 4.41266 148.694 49.3632 193.163 50.2068C207.262 50.4478 217.265 46.1094 225.701 40.2044C243.898 27.4302 254.262 6.82288 284.148 6.46134C314.035 6.09981 324.158 25.7431 342.235 38.6378C350.67 44.7838 360.552 49.3632 374.652 49.6043C419.121 50.4478 419.964 8.38952 465.397 8.63054" stroke="#24162B" stroke-width="1.4071" stroke-miterlimit="10"/>
<path d="M-252.366 -5.5896C-206.572 -5.34858 -206.934 40.4456 -161.139 40.6866C-117.032 40.9276 -116.309 -3.4204 -72.4434 -3.4204C-28.5774 -3.4204 -28.3364 40.5661 15.5296 40.5661C59.275 40.5661 60.1186 -3.78193 104.226 -3.54091C149.417 -3.29989 149.658 41.8917 194.247 42.6148C208.468 42.8558 218.349 38.3969 226.665 32.2508C244.621 19.2357 254.744 -1.49223 284.872 -1.73325C314.999 -1.97427 324.881 18.2716 342.717 31.4073C351.032 37.5533 360.793 42.2532 375.014 42.4943C419.603 43.0968 420.326 -0.166607 465.517 0.0744153" stroke="#24162B" stroke-width="1.4071" stroke-miterlimit="10"/>
<path d="M-252.366 -13.3025C-207.054 -13.0615 -207.295 32.7327 -161.983 32.9737C-117.514 33.2147 -117.032 -11.8564 -72.6844 -11.7358C-28.3364 -11.6153 -28.3364 33.2147 16.0116 33.3352C60.3597 33.4557 60.8417 -11.6153 105.31 -11.3743C150.381 -11.1333 150.261 34.2993 194.97 34.7814C209.311 34.9019 219.073 30.443 227.388 24.1764C244.982 10.9202 254.985 -10.0487 285.354 -10.0487C315.722 -10.0487 325.484 10.6792 342.958 24.0559C351.152 30.3225 360.914 35.0224 375.134 35.1429C419.844 35.6249 420.326 -8.9641 465.397 -8.72308" stroke="#24162B" stroke-width="1.4071" stroke-miterlimit="10"/>
<path d="M-252.247 -21.0151C-207.417 -20.7741 -207.658 25.02 -162.827 25.2611C-117.997 25.5021 -117.756 -20.2921 -72.8058 -19.9305C-27.9758 -19.6895 -28.2168 26.1046 16.6133 26.3457C61.4434 26.5867 61.6844 -19.2075 106.635 -18.8459C151.465 -18.6049 151.224 27.1892 196.054 27.4303C240.884 27.6713 241.125 -18.1229 286.076 -17.7613C330.906 -17.5203 330.665 28.2738 375.495 28.5149C420.325 28.7559 420.566 -17.0383 465.516 -16.6767" stroke="#24162B" stroke-width="1.4071" stroke-miterlimit="10"/>
</g>
<path d="M429.9 57.9998L428.5 166.6C428.5 168.4 428.5 168.6 428.5 172.6C424.5 171.1 424 171 424 171C422.5 170.4 421 169.6 420.2 169.2C385.7 152 335.9 136.1 274 123C274.7 85.5998 275.5 34.0999 276 0.0998535C342.7 17.4999 395.3 37.4998 429.9 57.9998Z" fill="#76C8E6"/>
<path d="M275.6 20.0996C275.6 20.0996 369.7 44.9996 429.4 78.6996" stroke="white" stroke-miterlimit="10"/>
<path d="M283.999 16.0996C285.932 16.0996 287.499 14.5326 287.499 12.5996C287.499 10.6666 285.932 9.09961 283.999 9.09961C282.066 9.09961 280.499 10.6666 280.499 12.5996C280.499 14.5326 282.066 16.0996 283.999 16.0996Z" stroke="white" stroke-miterlimit="10"/>
<path d="M297.1 19.7993C299.033 19.7993 300.6 18.2323 300.6 16.2993C300.6 14.3663 299.033 12.7993 297.1 12.7993C295.167 12.7993 293.6 14.3663 293.6 16.2993C293.6 18.2323 295.167 19.7993 297.1 19.7993Z" stroke="white" stroke-miterlimit="10"/>
<path d="M310.199 23.5996C312.132 23.5996 313.699 22.0326 313.699 20.0996C313.699 18.1666 312.132 16.5996 310.199 16.5996C308.266 16.5996 306.699 18.1666 306.699 20.0996C306.699 22.0326 308.266 23.5996 310.199 23.5996Z" stroke="white" stroke-miterlimit="10"/>
<path d="M283.799 43.3994V52.8994C283.799 52.8994 336.199 67.3994 339.299 68.9994C339.499 64.2994 339.399 59.6994 339.399 59.6994C339.399 59.6994 300.199 46.1994 283.799 43.3994Z" stroke="white" stroke-miterlimit="10"/>
<path d="M283.999 60.9995V68.9995C283.999 68.9995 336.999 83.1995 340.099 84.8995C340.299 80.1995 340.099 76.4995 340.099 76.4995C340.099 76.4995 302.399 64.1995 283.999 60.9995Z" stroke="white" stroke-miterlimit="10"/>
<path d="M283.799 76.7993V84.8993C283.799 84.8993 337.499 100.299 340.599 101.899C340.499 97.1993 340.599 93.4993 340.599 93.4993C340.599 93.4993 296.399 78.6993 283.799 76.7993Z" stroke="white" stroke-miterlimit="10"/>
<path d="M283.999 93.2993L283.899 101.899C283.899 101.899 337.599 116.799 340.699 118.399C340.899 113.699 340.699 109.999 340.699 109.999C340.699 109.999 308.799 99.7993 283.999 93.2993Z" stroke="white" stroke-miterlimit="10"/>
<path d="M352.499 63.1997C352.499 68.3997 352.499 88.6997 352.499 88.6997C352.499 88.6997 374.599 94.6997 379.799 97.7997C380.899 77.7997 380.599 71.2997 380.599 71.2997C380.599 71.2997 362.999 65.0997 352.499 63.1997Z" stroke="white" stroke-miterlimit="10"/>
<path d="M351.899 97.7993C351.899 102.599 351.899 121.899 351.899 121.899C351.899 121.899 374.899 128.999 378.699 131.599C380.199 113.299 379.799 106.699 379.799 106.699C379.799 106.699 369.199 100.999 351.899 97.7993Z" stroke="white" stroke-miterlimit="10"/>
<path d="M387.899 73.0996L386.299 135.1C386.299 135.1 413.799 148.3 415.499 148C417.199 147.7 417.699 85.6996 417.699 85.6996C417.699 85.6996 406.099 78.6996 387.899 73.0996Z" stroke="white" stroke-miterlimit="10"/>
<path d="M162.983 218.076C162.983 219.739 156.409 254.111 162.824 302.58C144.213 330.537 141.679 372.354 141.203 378.769C140.728 385.184 141.599 387.797 141.599 387.797C141.599 387.797 159.894 386.293 161.716 388.589C174.467 369.899 176.051 357.544 184.05 345.03C192.049 332.517 199.018 311.925 201.236 306.461C203.453 300.996 209.393 272.643 210.343 257.516C212.402 261.872 231.331 277.474 234.024 278.662C236.716 279.771 211.531 325.944 211.611 353.821C211.611 361.266 226.817 366.968 230.46 363.563C263.169 332.834 278.216 293.155 282.255 280.009C286.294 266.941 267.366 235.103 264.04 230.51C243.448 202.632 233.548 197.484 231.806 192.811C230.064 188.06 213.511 189.802 203.849 190.99C194.187 192.178 162.983 218.076 162.983 218.076Z" fill="white" stroke="#171233" stroke-width="1.9664" stroke-miterlimit="10"/>
<path d="M266.891 298.858C266.495 297.274 264.99 297.511 262.139 298.224C257.15 300.362 254.061 288.245 256.912 281.83C257.625 281.117 259.05 281.117 259.763 280.404C262.614 276.841 257.625 273.989 256.912 271.138C256.199 264.01 258.338 255.457 256.199 249.755C253.348 242.627 244.082 243.34 236.954 239.776C228.401 235.499 226.975 227.658 234.103 221.956C238.617 217.838 243.369 214.195 248.675 211.423C238.3 199.702 232.915 196.138 231.727 192.732C229.985 187.98 213.432 189.723 203.77 190.911C194.108 192.098 162.983 218.075 162.983 218.075C162.983 218.551 162.429 222.035 161.716 227.896C163.062 238.667 163.775 249.676 167.893 259.655C168.606 261.08 171.457 262.506 170.744 263.931C169.319 268.208 167.893 272.485 168.606 277.474C170.032 287.453 180.011 296.719 173.596 305.273C159.34 323.092 155.618 350.653 153.479 372.75C153.083 379.64 168.448 352.158 173.358 338.14C178.031 324.676 183.971 323.171 187.851 315.252C190.702 308.837 185.713 299.016 187.138 287.453C188.96 272.485 185 283.097 188.564 268.762C190.148 262.585 196.721 257.437 200.285 254.586C205.275 251.735 207.096 245.399 211.373 251.101C212.799 253.239 222.778 253.319 224.203 255.457C230.618 261.872 231.331 262.506 237.667 268.208C248.359 278.187 243.369 300.283 233.39 306.698C227.925 309.866 222.857 313.588 219.055 318.499C214.858 330.616 211.452 343.446 211.452 353.821C211.452 361.266 226.658 366.968 230.301 363.562C239.33 355.088 246.933 345.981 253.427 336.952C252.556 334.418 251.527 331.962 250.418 329.587C245.507 318.024 269.821 310.737 266.891 298.858Z" fill="#CDEBF2"/>
<path d="M162.983 218.076C162.983 219.739 156.409 254.111 162.824 302.58C144.213 330.537 141.679 372.354 141.203 378.769C140.728 385.184 141.599 387.797 141.599 387.797C141.599 387.797 159.894 386.293 161.716 388.589C174.467 369.899 176.051 357.544 184.05 345.03C192.049 332.517 199.018 311.925 201.236 306.461C203.453 300.996 209.393 272.643 210.343 257.516C212.402 261.872 231.331 277.474 234.024 278.662C236.716 279.771 211.531 325.944 211.611 353.821C211.611 361.266 226.817 366.968 230.46 363.563C263.169 332.834 278.216 293.155 282.255 280.009C286.294 266.941 267.366 235.103 264.04 230.51C243.448 202.632 233.548 197.484 231.806 192.811C230.064 188.06 213.511 189.802 203.849 190.99C194.187 192.178 162.983 218.076 162.983 218.076Z" stroke="#171233" stroke-width="1.9664" stroke-miterlimit="10"/>
<path d="M141.837 387.005C141.124 388.51 140.649 392.47 138.194 398.726C133.046 411.952 127.185 414.487 129.403 423.991C130.353 427.95 132.808 435.316 143.104 433.257C150.549 431.752 156.964 422.486 156.409 412.507C156.172 408.072 156.013 400.706 157.122 398.806C158.231 396.905 161.636 392.786 160.924 388.51C159.498 379.56 147.222 376.234 141.837 387.005Z" fill="#7269B0" stroke="#171034" stroke-width="1.7985" stroke-miterlimit="10"/>
<path d="M243.052 403.241C250.338 397.143 246.061 390.094 244.398 387.401C240.755 381.461 236.874 380.353 232.994 374.254C229.588 368.948 230.301 363.404 230.301 363.404C230.301 363.404 226.103 352 211.452 353.663C210.897 354.692 210.105 356.276 205.987 359.444C204.165 360.791 196.642 366.968 200.285 377.105C202.027 381.937 204.72 380.432 209.155 380.432C213.59 380.432 214.857 386.847 215.966 389.46C217.154 392.153 232.202 412.349 243.052 403.241Z" fill="#7269B0" stroke="#171034" stroke-width="1.7985" stroke-miterlimit="10"/>
<path d="M204.483 368.156C202.107 368.631 199.335 371.007 199.81 374.729C200.76 381.937 206.859 382.887 209.472 384.708C212.086 386.53 221.669 399.123 227.609 402.845C233.548 406.567 240.914 407.122 244.478 401.498C248.675 394.925 237.904 386.055 232.836 384.392C226.817 382.412 220.481 380.907 218.263 376.551C217.234 374.492 212.561 366.493 204.483 368.156Z" fill="white" stroke="#171034" stroke-width="1.7985" stroke-miterlimit="10"/>
<path d="M143.104 402.528C143.5 399.835 143.025 390.411 148.727 387.401C152.608 385.342 158.944 387.956 158.944 393.103C158.944 398.251 155.855 399.281 156.33 406.013C156.647 409.656 156.806 422.961 153.796 427C150.866 431.039 147.302 433.653 144.134 434.445C141.204 435.158 135.264 435.474 133.046 429.931C130.829 424.387 132.729 417.576 137.56 413.299C141.283 410.21 142.312 408.072 143.104 402.528Z" fill="white" stroke="#171034" stroke-width="1.7985" stroke-miterlimit="10"/>
<path d="M206.542 364.751C208.125 364.592 209.709 364.751 211.293 364.988C212.877 365.226 214.461 365.701 215.887 366.335C217.392 366.968 218.817 367.84 220.005 369.027C220.639 369.661 221.114 370.374 221.51 371.087C221.748 371.483 221.906 371.879 222.064 372.275C222.223 372.671 222.302 373.146 222.381 373.463C222.698 374.809 223.49 375.997 224.599 376.789C225.707 377.66 227.054 378.214 228.559 378.69C229.984 379.165 231.568 379.561 233.073 380.115C234.578 380.67 236.082 381.382 237.191 382.57C235.845 381.699 234.34 381.303 232.835 380.986C231.331 380.67 229.747 380.511 228.242 380.115C226.658 379.798 225.074 379.244 223.648 378.214C222.223 377.185 221.114 375.601 220.718 373.938C220.56 373.463 220.48 373.146 220.401 372.829C220.243 372.512 220.164 372.195 220.005 371.879C219.688 371.245 219.292 370.691 218.817 370.136C217.867 369.107 216.6 368.235 215.332 367.523C213.986 366.81 212.561 366.256 211.135 365.78C209.63 365.384 208.125 364.988 206.542 364.751Z" fill="#171233"/>
<path d="M233.865 278.583C236.874 278.662 239.805 278.504 242.735 278.108C245.665 277.712 248.516 277.158 251.288 276.366C254.06 275.574 256.832 274.544 259.446 273.198C262.138 271.93 264.514 270.347 267.128 268.683C265.069 270.901 262.851 272.96 260.159 274.465C258.891 275.336 257.466 275.89 256.119 276.603C255.407 276.92 254.694 277.158 253.981 277.395C253.268 277.712 252.556 277.87 251.843 278.108C250.417 278.583 248.912 278.821 247.408 279.138L245.111 279.454C244.319 279.534 243.606 279.534 242.814 279.613C239.884 279.692 236.795 279.454 233.865 278.583Z" fill="#171233"/>
<path d="M260.872 278.979C259.367 279.375 257.941 279.533 256.437 279.692C254.932 279.85 253.506 279.929 252.002 279.929C250.497 279.929 249.071 279.85 247.566 279.692C246.062 279.533 244.636 279.375 243.131 278.979C244.636 278.583 246.062 278.425 247.566 278.266C249.071 278.108 250.497 278.029 252.002 278.029C253.506 278.029 254.932 278.108 256.437 278.266C257.941 278.425 259.446 278.583 260.872 278.979Z" fill="#171233"/>
<path d="M168.843 300.283C170.902 301.788 173.041 302.897 175.417 303.53C177.713 304.164 180.089 304.402 182.545 304.243C184.92 304.085 187.296 303.61 189.672 302.897C192.048 302.184 194.266 301.234 196.642 300.283C194.662 301.867 192.523 303.293 190.148 304.243C187.772 305.273 185.237 305.906 182.624 306.065C180.01 306.223 177.397 305.827 174.941 304.877C172.486 303.926 170.269 302.342 168.843 300.283Z" fill="#171233"/>
<path d="M180.644 260.922C181.753 260.843 182.862 261.001 183.891 261.159C184.921 261.318 186.03 261.397 187.059 261.476C189.197 261.635 191.257 261.714 193.316 261.635C195.375 261.555 197.434 261.239 199.572 260.922C201.632 260.605 203.691 259.971 205.829 259.417C204.007 260.605 202.107 261.714 199.968 262.347C197.909 262.981 195.692 263.456 193.474 263.535C191.257 263.614 189.039 263.456 186.901 262.981C185.792 262.743 184.762 262.427 183.733 262.11C182.624 261.635 181.674 261.239 180.644 260.922Z" fill="#171233"/>
<path d="M258.258 310.737C257.941 312.163 257.387 313.509 256.833 314.856C256.278 316.202 255.645 317.469 254.932 318.816C253.665 321.429 252.239 323.963 250.893 326.498C249.546 329.032 248.2 331.566 246.854 334.101C245.587 336.635 244.319 339.249 243.131 341.941C243.527 339.011 244.478 336.239 245.507 333.546C246.537 330.854 247.804 328.161 249.15 325.627C250.497 323.092 252.002 320.558 253.506 318.103L255.803 314.46C256.833 313.192 257.625 312.004 258.258 310.737Z" fill="#171233"/>
<path d="M147.777 371.641C147.381 370.215 147.46 368.71 147.381 367.206C147.381 365.701 147.46 364.275 147.618 362.771C147.856 359.84 148.252 356.91 148.727 353.98C149.282 351.049 149.836 348.198 150.628 345.347C151.024 343.921 151.42 342.496 151.974 341.149C152.45 339.724 153.004 338.378 153.796 337.11C153.004 339.961 152.608 342.813 152.054 345.743L150.549 354.376L149.044 363.008L148.331 367.364C148.094 368.71 147.856 370.136 147.777 371.641Z" fill="#171233"/>
<path d="M202.898 377.026C203.057 376.313 203.374 375.68 203.69 375.046C204.086 374.413 204.482 373.858 204.958 373.304C205.433 372.75 205.987 372.274 206.621 371.878C207.254 371.482 207.967 371.166 208.68 371.166C207.413 371.799 206.383 372.749 205.433 373.779C204.958 374.254 204.482 374.809 204.086 375.363C203.77 375.917 203.294 376.472 202.898 377.026Z" fill="#B5AED6"/>
<path d="M204.641 379.56C204.72 378.768 205.116 378.056 205.512 377.343C205.908 376.63 206.383 375.996 206.937 375.442C207.492 374.888 208.046 374.333 208.759 373.858C209.393 373.462 210.184 373.066 210.976 373.066C210.264 373.383 209.63 373.858 209.076 374.333C208.521 374.809 207.967 375.363 207.492 375.917C207.017 376.472 206.541 377.105 206.066 377.66C205.512 378.293 205.037 378.848 204.641 379.56Z" fill="#B5AED6"/>
<path d="M207.888 380.986C207.967 380.432 208.204 379.877 208.521 379.402C208.759 378.927 209.155 378.452 209.472 377.977C209.868 377.581 210.264 377.105 210.818 376.868C211.293 376.551 211.927 376.393 212.481 376.393C211.452 376.947 210.739 377.66 210.026 378.452C209.313 379.244 208.6 380.115 207.888 380.986Z" fill="#B5AED6"/>
<path d="M210.897 382.491C211.056 382.016 211.293 381.541 211.531 381.145C211.769 380.749 212.085 380.353 212.481 379.957C212.798 379.64 213.194 379.244 213.669 379.006C214.065 378.769 214.62 378.531 215.095 378.531C214.303 379.085 213.669 379.719 213.036 380.432C212.323 381.224 211.689 381.857 210.897 382.491Z" fill="#B5AED6"/>
<path d="M213.036 385.342C213.432 384.154 214.065 383.124 214.857 382.174C215.253 381.699 215.728 381.303 216.204 380.907C216.679 380.511 217.312 380.194 217.946 380.194C217.392 380.511 216.996 380.907 216.6 381.303C216.204 381.699 215.808 382.174 215.412 382.57C214.62 383.52 213.907 384.471 213.036 385.342Z" fill="#B5AED6"/>
<path d="M215.649 388.51C215.808 387.797 216.045 387.164 216.362 386.451C216.679 385.817 217.075 385.184 217.471 384.629C217.946 384.075 218.421 383.521 219.055 383.125C219.689 382.729 220.401 382.412 221.114 382.491C220.401 382.729 219.847 383.125 219.372 383.6C218.897 384.075 218.421 384.55 218.025 385.105C217.233 386.134 216.441 387.322 215.649 388.51Z" fill="#B5AED6"/>
<path d="M218.421 391.282C218.58 390.49 218.817 389.698 219.134 388.906C219.451 388.114 219.847 387.401 220.322 386.768C220.797 386.134 221.352 385.421 222.064 384.946C222.777 384.471 223.569 384.154 224.44 384.154C222.856 384.708 221.827 385.896 220.877 387.164C220.005 388.431 219.213 389.856 218.421 391.282Z" fill="#B5AED6"/>
<path d="M221.193 394.054C221.114 393.816 221.193 393.499 221.273 393.262C221.352 393.024 221.431 392.787 221.51 392.549C221.669 392.074 221.906 391.599 222.144 391.124C222.619 390.252 223.173 389.381 223.807 388.589C224.441 387.797 225.233 387.084 226.025 386.451C226.896 385.817 227.846 385.421 228.876 385.342C227.925 385.659 227.133 386.292 226.341 386.926C225.629 387.56 224.916 388.272 224.282 389.064C223.649 389.856 223.094 390.648 222.54 391.44C222.223 391.836 221.985 392.312 221.748 392.708C221.589 393.183 221.273 393.579 221.193 394.054Z" fill="#B5AED6"/>
<path d="M223.807 396.826C224.123 395.638 224.599 394.529 225.153 393.42C225.707 392.311 226.341 391.282 227.133 390.331C227.925 389.381 228.796 388.51 229.905 387.876C230.934 387.243 232.122 386.768 233.39 386.768C232.202 387.084 231.172 387.639 230.222 388.352C229.271 389.064 228.479 389.935 227.687 390.807C226.895 391.678 226.262 392.707 225.628 393.658C224.995 394.767 224.361 395.796 223.807 396.826Z" fill="#B5AED6"/>
<path d="M236.716 389.064C235.607 389.619 234.499 390.332 233.469 391.044C232.439 391.757 231.489 392.549 230.539 393.42C229.667 394.292 228.796 395.163 228.083 396.192C227.371 397.222 226.816 398.331 226.5 399.598C226.579 398.331 226.975 397.063 227.608 395.876C228.242 394.688 229.113 393.737 230.063 392.866C231.014 391.995 232.043 391.203 233.152 390.569C234.34 390.015 235.528 389.381 236.716 389.064Z" fill="#B5AED6"/>
<path d="M240.2 391.836C239.646 391.995 239.092 392.391 238.537 392.708C237.983 393.024 237.508 393.341 236.953 393.658C235.924 394.371 234.973 395.084 234.023 395.955C233.152 396.747 232.281 397.697 231.568 398.727C230.855 399.756 230.301 400.865 229.984 402.053C229.984 401.419 230.142 400.786 230.301 400.152C230.538 399.519 230.776 398.964 231.093 398.41C231.726 397.301 232.597 396.272 233.469 395.4C234.419 394.529 235.449 393.816 236.557 393.183C237.825 392.628 238.933 391.995 240.2 391.836Z" fill="#B5AED6"/>
<path d="M242.339 394.846C241.468 395.4 240.676 395.875 239.805 396.43C239.013 396.984 238.221 397.538 237.508 398.251C236.795 398.885 236.082 399.598 235.528 400.39C234.974 401.182 234.498 402.053 234.182 403.003C234.261 401.974 234.578 401.023 235.053 400.073C235.607 399.202 236.32 398.41 237.033 397.697C237.825 396.984 238.617 396.43 239.567 395.954C240.438 395.479 241.389 395.083 242.339 394.846Z" fill="#B5AED6"/>
<path d="M149.36 389.856C150.073 389.698 150.785 389.698 151.498 389.777C152.211 389.856 152.924 390.015 153.637 390.173C154.349 390.411 154.983 390.648 155.617 391.124C156.25 391.519 156.804 392.074 157.121 392.707C156.012 391.836 154.745 391.282 153.399 390.886C152.765 390.648 152.053 390.49 151.419 390.332C150.785 390.173 150.073 389.936 149.36 389.856Z" fill="#B5AED6"/>
<path d="M147.776 392.549C148.568 392.311 149.36 392.391 150.152 392.391C150.944 392.47 151.736 392.628 152.449 392.866C153.241 393.103 153.953 393.42 154.587 393.816C155.221 394.212 155.854 394.767 156.25 395.479C155.617 395.004 154.983 394.608 154.349 394.291C153.637 393.975 152.924 393.737 152.211 393.499C151.498 393.262 150.785 393.103 149.993 392.866C149.36 392.787 148.568 392.549 147.776 392.549Z" fill="#B5AED6"/>
<path d="M146.588 396.034C148.172 395.955 149.756 396.113 151.34 396.509C152.132 396.747 152.924 396.984 153.637 397.301C154.349 397.618 155.062 398.172 155.458 398.885C154.825 398.33 154.112 398.093 153.399 397.855C152.686 397.618 151.894 397.38 151.181 397.222C149.597 396.826 148.093 396.43 146.588 396.034Z" fill="#B5AED6"/>
<path d="M146.034 399.439C146.746 399.281 147.38 399.281 148.093 399.281C148.806 399.281 149.518 399.36 150.152 399.519C150.865 399.677 151.498 399.835 152.132 400.152C152.766 400.469 153.399 400.786 153.795 401.419C153.241 401.023 152.607 400.865 151.894 400.707C151.261 400.548 150.627 400.39 149.914 400.311C148.726 399.915 147.38 399.756 146.034 399.439Z" fill="#B5AED6"/>
<path d="M146.034 402.528C147.459 402.37 148.806 402.528 150.231 402.845C150.944 403.003 151.578 403.241 152.211 403.478C152.845 403.795 153.478 404.191 153.874 404.825C153.32 404.429 152.686 404.191 152.053 404.033C151.419 403.874 150.706 403.716 150.073 403.558C148.726 403.241 147.38 402.924 146.034 402.528Z" fill="#B5AED6"/>
<path d="M144.212 406.25C145.004 406.092 145.875 406.013 146.746 406.013C147.617 406.013 148.409 406.092 149.281 406.25C150.073 406.409 150.944 406.646 151.736 407.042C152.528 407.438 153.24 407.993 153.557 408.785C153.003 408.151 152.211 407.834 151.498 407.597C150.706 407.359 149.993 407.121 149.122 407.042C148.33 406.884 147.538 406.805 146.746 406.646L144.212 406.25Z" fill="#B5AED6"/>
<path d="M142.866 409.893C143.816 409.735 144.767 409.735 145.717 409.735C146.667 409.735 147.618 409.893 148.568 410.052C149.518 410.289 150.469 410.527 151.34 411.002C152.211 411.477 153.082 412.111 153.478 412.982C152.845 412.269 151.974 411.873 151.102 411.477C150.231 411.161 149.36 410.923 148.41 410.685C146.667 410.369 144.766 410.21 142.866 409.893Z" fill="#B5AED6"/>
<path d="M141.044 413.378C142.153 413.061 143.262 413.141 144.37 413.299C145.479 413.378 146.588 413.616 147.617 413.933C148.647 414.249 149.756 414.645 150.706 415.2C151.657 415.754 152.607 416.546 153.082 417.497C152.369 416.705 151.419 416.15 150.389 415.675C149.439 415.2 148.409 414.883 147.38 414.566C146.35 414.249 145.321 414.012 144.212 413.774C143.657 413.695 143.182 413.537 142.628 413.457C142.153 413.457 141.598 413.378 141.044 413.378Z" fill="#B5AED6"/>
<path d="M137.876 416.625C139.222 416.467 140.648 416.467 142.073 416.625C143.499 416.705 144.845 416.942 146.192 417.259C146.905 417.417 147.538 417.655 148.172 417.893C148.805 418.209 149.439 418.447 150.073 418.764C151.26 419.477 152.448 420.427 153.082 421.615C152.211 420.506 151.023 419.793 149.835 419.239C148.647 418.685 147.301 418.209 146.033 417.893C144.687 417.576 143.341 417.338 141.994 417.101C140.648 416.942 139.302 416.705 137.876 416.625Z" fill="#B5AED6"/>
<path d="M152.449 425.654C151.894 425.258 151.261 424.862 150.627 424.545C149.994 424.228 149.36 423.911 148.726 423.595C147.459 422.961 146.113 422.407 144.767 421.932C143.42 421.456 142.074 421.06 140.648 420.823C139.223 420.585 137.797 420.506 136.372 420.744C137.718 420.189 139.223 420.11 140.648 420.268C142.074 420.427 143.499 420.744 144.925 421.298C146.271 421.773 147.618 422.407 148.885 423.119C150.231 423.832 151.419 424.624 152.449 425.654Z" fill="#B5AED6"/>
<path d="M148.885 428.822C148.489 428.347 147.934 428.03 147.38 427.713C146.826 427.396 146.351 427 145.796 426.683C144.687 426.05 143.579 425.495 142.47 425.02C140.173 424.07 137.718 423.595 135.184 423.991C135.738 423.753 136.372 423.595 137.005 423.515C137.639 423.436 138.272 423.436 138.906 423.436C140.173 423.515 141.44 423.911 142.628 424.387C143.816 424.862 144.925 425.495 145.955 426.208C147.142 426.921 148.172 427.713 148.885 428.822Z" fill="#B5AED6"/>
<path d="M145.479 431.119C144.608 430.564 143.737 430.089 142.866 429.614C141.995 429.139 141.123 428.664 140.173 428.347C139.302 427.951 138.351 427.713 137.401 427.476C136.451 427.317 135.5 427.238 134.471 427.317C135.421 426.921 136.451 426.842 137.48 426.921C138.51 427 139.539 427.317 140.49 427.634C141.44 428.03 142.311 428.505 143.183 429.06C144.054 429.693 144.846 430.327 145.479 431.119Z" fill="#B5AED6"/>
<path d="M94.7932 184.179C83.1511 188.931 71.0337 186.238 68.6578 189.881C66.2818 193.524 60.0252 198.276 62.2427 202.395C63.5891 204.929 65.6483 212.532 69.925 212.769C75.7856 213.086 75.2313 209.443 81.5671 204.929C88.7741 199.86 92.5756 202.791 100.733 197.643C103.901 195.663 94.7932 184.179 94.7932 184.179Z" fill="white" stroke="#171034" stroke-width="1.4547" stroke-miterlimit="10"/>
<path d="M96.9316 187.109C89.3286 190.752 79.4288 188.851 72.4594 192.732C67.5491 194.95 65.0939 199.781 63.3516 204.929C64.6979 208.176 66.6779 212.532 69.925 212.69C75.7857 213.007 75.2313 209.364 81.5671 204.85C88.7742 199.781 92.5757 202.711 100.733 197.563C102.871 196.296 99.4659 190.673 96.9316 187.109Z" fill="#CDEBF2"/>
<path d="M94.7932 184.179C83.1511 188.931 71.0337 186.238 68.6578 189.881C66.2818 193.524 60.0252 198.276 62.2427 202.395C63.5891 204.929 65.6483 212.532 69.925 212.769C75.7856 213.086 75.2313 209.443 81.5671 204.929C88.7741 199.86 92.5756 202.791 100.733 197.643C103.901 195.663 94.7932 184.179 94.7932 184.179Z" stroke="#171034" stroke-width="1.4547" stroke-miterlimit="10"/>
<path d="M137.085 129.057C136.293 131.037 112.138 154.004 107.307 160.023C102.475 166.042 89.0118 182.436 88.2198 182.516C87.3486 184.892 89.487 196.851 96.9316 200.969C102.792 200.969 119.107 192.811 123.938 191.148C128.769 189.564 140.253 183.387 143.104 179.744C145.955 176.18 137.085 129.057 137.085 129.057Z" fill="white" stroke="#171034" stroke-width="1.4547" stroke-miterlimit="10"/>
<path d="M115.226 162.083C114.593 162.716 113.88 163.033 113.167 163.27C111.821 163.746 110.712 164.617 109.999 165.805C105.722 172.933 99.3865 179.031 92.1795 182.278C89.4867 183.545 88.0612 186.555 88.8531 189.485C89.8035 192.811 91.6251 196.613 94.397 199.226C95.8226 200.573 97.8817 201.048 99.7825 200.573C106.99 198.91 119.74 192.574 123.938 191.227C128.769 189.643 140.253 183.466 143.104 179.823C144.529 178.001 142.945 165.013 141.045 152.658C140.411 148.46 135.818 146.243 132.095 148.381C125.839 151.945 119.899 156.143 115.226 162.083Z" fill="#CDEBF2"/>
<path d="M137.085 129.057C136.293 131.037 112.138 154.004 107.307 160.023C102.475 166.042 89.0118 182.436 88.2198 182.516C87.3486 184.892 89.487 196.851 96.9316 200.969C102.792 200.969 119.107 192.811 123.938 191.148C128.769 189.564 140.253 183.387 143.104 179.744C145.955 176.18 137.085 129.057 137.085 129.057Z" stroke="#171034" stroke-width="1.4547" stroke-miterlimit="10"/>
<path d="M318.607 145.768C320.35 145.847 321.458 144.263 321.142 142.283L307.44 68.4702L301.5 69.8166L314.964 142.204C315.281 144.104 316.944 145.688 318.607 145.768Z" fill="#403092"/>
<path d="M308.311 85.973C307.836 83.4386 305.935 72.1133 305.46 71.4005C304.985 70.6877 304.035 70.9253 304.035 70.9253L307.836 70.2917C307.836 70.2917 317.578 120.899 321.221 142.204C321.617 144.5 319.954 145.847 318.845 145.688C320.825 142.758 320.191 149.332 308.311 85.973Z" fill="#675AA7"/>
<path d="M281.146 52.6306C285.898 64.2727 297.382 70.0541 307.202 65.2231C317.657 60.1544 322.329 45.2651 316.944 32.2766C311.558 19.2881 298.807 14.2986 288.908 20.7929C279.642 26.8912 276.394 40.9884 281.146 52.6306Z" stroke="#403092" stroke-width="11.3608" stroke-miterlimit="10"/>
<path d="M300.233 69.6582C308.945 67.8366 314.964 64.5103 319.162 54.2937C324.23 42.018 318.845 26.2576 311.48 20.2385C304.352 14.3779 295.957 13.6651 288.67 17.3874C285.899 18.813 279.404 23.9608 279.404 23.9608C279.404 23.9608 284.235 15.645 292.789 13.5859C299.283 12.0811 309.975 12.8731 317.419 23.2481C323.042 31.0887 326.527 43.0476 321.696 54.4521C317.023 65.3815 310.212 70.9254 301.421 71.3214C292.472 71.7173 289.621 68.3118 289.621 68.3118C289.621 68.3118 297.778 70.2126 300.233 69.6582Z" fill="#675AA7"/>
<path d="M293.026 28.3169C295.798 26.5745 302.451 27.4457 308.153 35.2071C311.717 40.0382 310.291 47.958 304.748 39.8006C302.292 36.2367 298.333 33.3064 296.432 32.9896C292.393 32.356 288.908 30.8512 293.026 28.3169Z" fill="white"/>
<path d="M295.481 22.6145C291.601 23.2481 282.651 29.4256 283.602 42.4933C284.71 57.2241 295.481 61.6592 295.481 61.6592C295.481 61.6592 282.334 60.6297 281.067 42.4141C280.434 31.4055 287.165 22.0601 295.481 22.6145Z" fill="#171034"/>
<path d="M306.014 120.187C309.737 107.04 320.666 111.079 322.012 100.229C322.408 93.2592 321.141 91.3585 319.874 87.3986C318.765 84.0722 313.855 82.4091 310.925 82.5675C312.984 89.9329 308.707 94.5264 305.46 92.8632C304.431 92.3088 304.035 89.1409 303.243 86.369C300.075 87.557 295.56 90.0913 296.194 95.7936C296.748 100.308 295.402 104.426 292.709 110.049C290.016 115.672 291.759 122.246 292.868 124.384C293.976 126.522 306.014 120.187 306.014 120.187Z" fill="white"/>
<path d="M313.855 82.8844C312.509 82.5676 311.242 83.6764 311.4 85.0227C312.034 90.9626 308.311 94.3681 305.46 92.9426C304.668 92.5466 304.351 90.8042 303.876 88.8242C303.559 87.4779 302.134 86.9235 300.946 87.5571C298.332 89.0619 295.798 91.517 296.273 95.8729C296.352 96.5065 296.352 97.1401 296.352 97.7736C296.352 99.912 299.283 100.625 300.154 98.6448C300.391 98.0112 300.629 97.3777 300.867 96.6649C301.342 95.1601 303.322 94.6849 304.351 95.9521C306.807 99.0408 310.133 100.942 313.142 97.932C316.31 95.4769 316.548 90.329 317.261 85.8147C317.419 84.9435 316.944 84.0724 316.152 83.6764C315.439 83.3596 314.647 83.122 313.855 82.8844Z" fill="#CDEBF2"/>
<path d="M306.014 120.187C309.737 107.04 320.666 111.079 322.012 100.229C322.408 93.2592 321.141 91.3585 319.874 87.3986C318.765 84.0722 313.855 82.4091 310.925 82.5675C312.984 89.9329 308.707 94.5264 305.46 92.8632C304.431 92.3088 304.43 88.6657 303.639 85.8938C300.471 87.0818 295.56 90.0913 296.194 95.7936C296.748 100.308 295.402 104.426 292.709 110.049C290.016 115.672 291.759 122.246 292.868 124.384C293.976 126.522 306.014 120.187 306.014 120.187Z" stroke="#171034" stroke-width="1.9928" stroke-miterlimit="10"/>
<path d="M159.577 228.609C203.136 229.242 216.679 211.898 247.883 208.809C245.349 192.732 237.587 160.657 235.924 144.817C234.578 132.304 228.479 110.524 227.529 105.456C226.579 100.308 180.169 110.128 174.942 116.306C169.714 122.483 152.766 129.77 152.924 135.63C153.083 141.412 146.668 220.372 159.577 228.609Z" fill="white" stroke="#171233" stroke-width="1.9664" stroke-miterlimit="10"/>
<path d="M235.528 199.147C219.372 194.712 209.393 164.458 215.333 160.736C217.946 159.073 216.679 150.757 221.035 156.459C224.995 161.607 232.519 163.666 239.013 163.904C237.508 155.984 236.558 150.361 235.924 144.976C234.578 132.462 228.48 110.683 227.529 105.614C226.579 100.466 180.169 110.287 174.942 116.464C169.715 122.642 152.766 129.928 152.925 135.789C153.083 141.649 146.589 220.61 159.577 228.846C195.771 229.401 211.294 217.442 233.39 211.66C234.895 207.463 235.845 203.424 235.528 199.147Z" fill="#CDEBF2"/>
<path d="M159.577 228.609C203.136 229.242 216.679 211.898 247.883 208.809C245.349 192.732 237.587 160.657 235.924 144.817C234.578 132.304 228.479 110.524 227.529 105.456C226.579 100.308 180.169 110.128 174.942 116.306C169.714 122.483 152.766 129.77 152.924 135.63C153.083 141.412 146.668 220.372 159.577 228.609Z" stroke="#171233" stroke-width="1.9664" stroke-miterlimit="10"/>
<path opacity="0.5" d="M197.513 37.979C197.513 37.979 213.432 43.6813 218.818 64.0352C224.203 84.3891 219.213 89.6162 219.213 89.6162C219.213 89.6162 205.116 90.4082 203.849 89.7746C202.582 89.141 197.513 37.979 197.513 37.979Z" fill="#9B93C7"/>
<path d="M219.926 85.973C219.926 95.3976 206.78 101.733 203.691 102.763C200.048 104.189 188.881 107.515 181.991 106.802C171.853 109.178 157.36 109.178 147.935 91.4377C142.154 80.5876 142.629 66.9655 145.876 59.2832C151.499 46.0571 161.241 38.6125 176.605 36.395C185 35.1278 193.078 36.5534 200.048 39.9589C206.859 46.0571 207.413 52.1554 210.423 59.996C214.224 69.7374 213.907 78.2908 219.926 85.973Z" fill="#9B93C7"/>
<path opacity="0.5" d="M168.685 78.37C154.35 71.2422 157.677 54.0562 163.379 40.1965C155.38 43.998 149.678 50.3339 145.876 59.2041C142.629 66.8863 142.154 80.5084 147.935 91.3585C157.439 109.178 171.853 109.099 181.991 106.723C188.881 107.515 200.048 104.189 203.691 102.684C205.908 101.971 213.591 98.328 217.471 92.7841C199.256 96.744 196.721 88.9034 185.475 80.4292C177.872 75.8357 173.2 80.5876 168.685 78.37Z" fill="#5C54A4"/>
<path d="M219.926 85.973C219.926 95.3976 206.78 101.733 203.691 102.763C200.048 104.189 188.881 107.515 181.991 106.802C171.853 109.178 157.36 109.178 147.935 91.4377C142.154 80.5875 142.629 66.9655 145.876 59.2832C151.499 46.0571 161.241 38.6125 176.605 36.395C185 35.1278 193.078 36.5534 200.048 39.9589C205.116 42.7308 207.413 52.1554 210.423 59.996C214.224 69.7374 213.907 78.2908 219.926 85.973Z" stroke="#171233" stroke-width="2.063" stroke-miterlimit="10" stroke-linecap="round" stroke-linejoin="round"/>
<path d="M217.55 63.7976C220.639 72.0342 220.956 83.5971 219.055 86.7651C210.106 89.3786 209.947 79.7164 208.601 69.2623C205.512 45.5028 204.879 45.5028 201.077 40.1965C207.017 42.0181 211.294 47.3244 217.55 63.7976Z" fill="#171233"/>
<path d="M225.708 106.881C226.42 113.93 210.581 115.118 187.93 110.445C168.606 106.485 152.291 117.177 151.578 110.049C150.865 103.001 161.636 99.4367 181.277 97.4568C200.919 95.4768 224.995 99.8327 225.708 106.881Z" fill="white" stroke="#171233" stroke-width="1.9664" stroke-miterlimit="10"/>
<path d="M169.522 108.875C172.467 108.216 174.561 106.366 174.198 104.744C173.835 103.122 171.153 102.342 168.208 103.001C165.262 103.66 163.169 105.509 163.532 107.131C163.895 108.753 166.577 109.534 169.522 108.875Z" fill="#CDEBF2" stroke="#171034" stroke-width="0.7738" stroke-miterlimit="10.0004"/>
<path d="M183.584 209.756C186.273 209.154 187.748 205.517 186.879 201.633C186.01 197.749 183.125 195.088 180.436 195.689C177.746 196.291 176.271 199.928 177.14 203.812C178.01 207.697 180.894 210.358 183.584 209.756Z" fill="#CDEBF2" stroke="#171034" stroke-width="0.7466" stroke-miterlimit="10.0004"/>
<path d="M138.779 216.82C141.212 216.276 142.541 212.962 141.749 209.42C140.956 205.877 138.341 203.446 135.907 203.99C133.474 204.535 132.145 207.848 132.938 211.391C133.73 214.934 136.346 217.365 138.779 216.82Z" fill="#CDEBF2" stroke="#171034" stroke-width="0.6777" stroke-miterlimit="10.0004"/>
<path d="M121.008 113.059C122.909 111.237 130.037 104.11 132.016 103.159C138.352 100.07 163.775 92.309 185.158 92.705C196.246 100.308 193.316 116.623 193.316 116.623L190.069 122.563C190.069 122.563 130.591 138.878 126.393 137.452C122.275 136.026 116.098 117.732 121.008 113.059Z" fill="#FAB030" stroke="#171034" stroke-width="1.5476" stroke-miterlimit="10"/>
<path d="M149.677 233.599C157.518 235.42 200.206 229.955 207.571 222.748C214.937 215.541 208.997 194.712 209.868 181.724C210.818 168.735 201.394 106.169 191.969 111.871C180.881 118.603 178.189 120.187 175.971 120.504C164.567 122.008 131.224 123.117 125.601 126.206C123.225 127.473 121.562 129.057 120.928 131.037C118.632 137.769 127.502 196.771 129.719 206.513C131.937 216.254 133.758 229.876 149.677 233.599Z" fill="#FAB030" stroke="#171034" stroke-width="1.5476" stroke-miterlimit="10"/>
<path d="M187.93 202.553C187.93 206.513 185.079 210.552 181.515 210.552C177.951 210.552 175.734 205.721 175.734 201.761C175.734 197.801 177.951 194.633 181.515 194.633C185.079 194.633 187.93 198.593 187.93 202.553Z" fill="#CDEBF2" stroke="#171034" stroke-width="1.5476" stroke-miterlimit="10"/>
<path d="M143.975 211.027C143.975 214.749 141.282 218.551 137.956 218.551C134.63 218.551 132.491 214.037 132.491 210.235C132.491 206.513 134.55 203.503 137.956 203.503C141.361 203.503 143.975 207.305 143.975 211.027Z" fill="#CDEBF2" stroke="#171034" stroke-width="1.4547" stroke-miterlimit="10"/>
<path d="M174.229 96.0314C175.734 95.477 180.01 95.2395 184.762 96.665C187.217 97.3778 189.118 100.15 189.673 102.13C190.702 105.694 192.128 112.029 192.207 114.009C192.286 115.91 192.049 119.316 192.207 120.82C192.365 122.325 193.316 136.185 194.108 139.67C194.9 143.154 198.226 156.697 199.81 158.756C201.394 160.895 193.87 162.399 192.92 161.37C191.969 160.34 184.842 129.453 184.842 129.453C184.842 129.453 176.367 96.3482 174.229 96.0314Z" fill="#171034"/>
<path d="M198.463 125.652C200.126 132.621 199.81 145.847 203.057 154.084C213.273 180.219 194.503 151.074 194.503 151.074C194.503 151.074 195.612 172.854 205.67 176.893C207.73 177.685 197.196 178.002 197.196 178.002C197.196 178.002 204.799 181.724 206.225 187.505C208.917 198.118 192.365 198.118 192.365 198.118L193.236 210.235C193.236 210.235 204.641 207.067 207.334 211.661C210.026 216.254 208.759 218.076 205.512 219.739C198.305 223.461 192.84 214.829 192.84 214.829C192.84 214.829 190.068 217.363 183.97 219.264C157.439 227.659 135.026 225.124 134.867 225.124C134.867 225.124 135.026 248.329 188.88 234.549C194.424 233.123 206.779 230.906 209.868 227.976C214.382 223.62 212.64 213.324 212.561 211.502C212.481 209.681 210.977 176.101 209.868 167.864C208.284 156.46 202.344 128.978 201.077 125.81C196.721 115.277 194.662 116.702 194.662 116.702C194.662 116.702 197.909 123.276 198.463 125.652Z" fill="#171034"/>
<path d="M178.584 125.968C179.376 126.839 179.852 127.948 180.327 128.978C180.802 130.087 181.119 131.195 181.515 132.304C182.227 134.522 182.782 136.818 183.336 139.036C184.366 143.55 185.316 148.144 186.108 152.737C187.771 161.924 189.038 171.19 190.306 180.457C191.494 189.723 192.602 198.989 193.394 208.334L193.632 211.819L193.711 213.561C193.711 214.116 193.711 214.829 193.632 215.462C193.474 216.729 192.998 217.997 192.206 219.105C191.414 220.214 190.306 220.927 189.197 221.56C186.9 222.669 184.445 222.986 182.069 222.986C179.693 222.986 177.317 222.59 175.1 221.956C177.476 222.036 179.772 221.956 182.069 221.719C184.366 221.481 186.583 221.006 188.484 219.976C189.434 219.501 190.226 218.788 190.86 218.076C191.494 217.284 191.89 216.333 192.048 215.304C192.127 214.749 192.127 214.274 192.127 213.72L192.048 211.977L191.81 208.493C191.018 199.227 190.068 189.96 189.039 180.694C188.009 171.428 186.821 162.162 185.395 152.975C184.683 148.381 183.891 143.788 183.019 139.194C182.544 136.898 181.99 134.68 181.435 132.383C181.119 131.275 180.802 130.166 180.406 129.057C179.772 128.027 179.376 126.919 178.584 125.968Z" fill="#171233"/>
<path d="M185.317 93.5762C185.554 94.4474 185.317 95.3977 185 96.2689C184.683 97.1401 184.287 97.9321 183.812 98.7241C182.861 100.308 181.753 101.734 180.565 103.08C179.377 104.426 178.11 105.773 176.842 107.04C175.575 108.307 174.229 109.574 172.883 110.683L172.803 110.762H172.645L159.656 112.901C155.301 113.613 151.024 114.326 146.668 114.96C142.312 115.672 137.956 116.227 133.679 116.86C131.541 117.177 129.324 117.494 127.185 117.732C125.047 118.048 122.829 118.286 120.691 118.603C122.829 118.128 124.968 117.732 127.185 117.336C129.324 116.94 131.462 116.544 133.679 116.148C138.035 115.356 142.312 114.564 146.668 113.851C151.024 113.138 155.301 112.425 159.656 111.713L172.645 109.653L172.407 109.733C173.754 108.624 175.1 107.436 176.446 106.248C177.793 105.06 179.06 103.793 180.248 102.526C181.436 101.258 182.624 99.912 183.653 98.4073C184.129 97.6945 184.604 96.9025 185 96.1105C185.158 95.3185 185.475 94.4474 185.317 93.5762Z" fill="#171233"/>
<path d="M180.723 196.455C177.634 197.959 177.951 205.087 181.277 207.859C184.525 210.631 210.898 206.592 216.441 205.721C224.599 204.454 242.498 198.989 248.517 195.504C256.04 191.148 250.417 182.199 245.19 185.525C240.359 188.614 237.429 190.436 216.125 194.791C195.295 199.227 180.723 196.455 180.723 196.455Z" fill="#CDEBF2" stroke="#171034" stroke-width="1.5476" stroke-miterlimit="10"/>
<path d="M138.194 215.937C132.254 216.65 131.62 217.759 128.215 216.571C124.73 215.383 124.017 207.542 126.71 205.166C130.195 202.078 131.383 206.434 135.739 205.008C137.956 205.166 143.975 211.898 138.194 215.937Z" fill="#CDEBF2" stroke="#171034" stroke-width="1.5476" stroke-miterlimit="10"/>
<path d="M173.437 111.475C174.625 113.693 175.734 115.91 176.763 118.207C177.239 119.395 177.872 120.504 178.11 121.771C178.268 122.404 178.347 123.038 178.427 123.672C178.427 124.305 178.427 125.018 178.11 125.652H178.031C178.031 125.018 177.793 124.464 177.635 123.909C177.397 123.355 177.239 122.8 177.001 122.167C176.605 121.058 176.288 119.791 175.892 118.603C175.1 116.227 174.229 113.93 173.358 111.554L173.437 111.475Z" fill="#171034"/>
<path d="M171.694 135.551L173.674 135.076C173.674 135.076 168.922 119.236 168.289 116.86C167.655 114.564 165.992 109.812 165.992 109.812C165.992 109.812 162.349 99.3576 161.398 98.2488C159.26 95.6353 151.182 99.1992 148.964 99.516C148.648 100.308 156.171 98.8032 157.755 99.3576C159.339 99.912 171.694 135.551 171.694 135.551Z" fill="#171034"/>
<path d="M165.359 101.1C167.972 96.7441 178.189 93.0218 185.396 98.8033C191.257 103.555 191.177 117.811 191.336 130.958C191.415 136.106 194.108 160.182 202.424 168.102C209.472 174.913 235.132 170.398 241.231 168.102C242.419 167.626 243.765 167.785 244.874 168.498C246.616 169.686 248.279 172.22 246.695 175.784C246.458 176.338 246.062 176.813 245.507 177.13C239.726 180.773 226.817 179.744 221.906 180.773C216.521 181.882 206.146 183.625 197.196 177.289C189.752 171.982 183.099 158.836 181.357 133.492C180.327 118.444 182.703 100.862 172.17 105.456C171.378 107.832 167.497 107.515 167.497 107.515C167.497 107.515 161.795 106.961 165.359 101.1Z" fill="#CDEBF2"/>
<path d="M165.359 101.1C167.972 96.7441 178.189 93.0218 185.396 98.8033C191.257 103.555 190.069 114.405 191.336 130.958C191.732 136.106 193.791 160.578 202.424 168.102C211.452 175.942 234.499 170.715 240.914 167.547C242.102 166.993 243.765 167.389 244.795 168.102C246.537 169.29 248.2 171.745 246.537 175.309C246.299 175.863 245.191 176.813 244.715 177.13C238.934 180.773 208.205 184.971 197.196 177.289C189.673 172.062 183.099 158.836 181.357 133.492C180.327 118.444 182.703 100.862 172.17 105.456C171.378 107.832 167.497 107.515 167.497 107.515C167.497 107.515 161.795 106.961 165.359 101.1Z" stroke="#171233" stroke-width="1.692" stroke-miterlimit="10" stroke-linecap="round"/>
<path d="M106.514 119.712L123.304 177.685C124.176 180.536 126.472 182.595 129.244 183.07C129.244 183.07 160.844 149.253 160.923 143.075C160.923 137.452 154.429 110.762 145.955 100.387L111.821 110.287C107.702 111.396 105.406 115.673 106.514 119.712Z" fill="#E8E7F4"/>
<path d="M129.323 183.07C130.432 183.308 131.62 183.229 132.808 182.912L174.625 170.794C178.664 169.606 181.277 164.379 180.089 160.34L162.349 107.673C160.29 102.05 158.151 97.4569 154.112 98.6449L136.055 103.476C158.864 107.436 159.577 139.432 159.498 145.055C159.498 151.232 129.323 183.07 129.323 183.07Z" fill="#C6C3CB"/>
<path d="M181.911 174.675C183.495 160.182 173.674 135.155 173.674 135.155C173.674 135.155 131.145 157.489 117.048 161.211C116.731 173.883 121.324 187.822 124.73 192.416C129.719 199.068 136.61 200.731 148.885 197.563C165.121 193.445 181.436 178.318 181.911 174.675Z" fill="#FCB116" stroke="#171034" stroke-width="1.5476" stroke-miterlimit="10"/>
<path d="M174.863 138.402C175.496 139.67 179.852 152.5 172.407 160.815C169.319 164.221 166.309 166.755 163.775 168.656C162.666 169.448 163.616 171.19 164.884 170.715C166.072 170.319 167.339 169.765 168.685 169.21C169.873 168.656 170.903 170.161 170.032 171.111C165.2 176.021 155.934 183.704 145.005 186.08C142.946 186.555 143.421 189.485 145.48 189.327C151.42 188.852 156.964 187.268 160.607 185.921C161.874 185.446 162.745 187.03 161.795 187.901C161.003 188.614 160.053 189.406 158.785 190.198C157.439 191.148 158.706 193.287 160.211 192.495C169.002 187.743 177.318 180.932 179.06 178.873C181.832 175.625 182.466 175.784 181.515 164.142C181.04 157.647 174.863 138.402 174.863 138.402Z" fill="#171034"/>
<path d="M143.104 140.145L142.55 138.244V138.165C144.609 134.205 144.054 131.037 143.896 130.483C143.896 130.403 143.817 130.403 143.817 130.403C143.262 130.641 140.332 131.829 138.115 135.71C138.115 135.71 138.115 135.71 138.035 135.789C137.798 135.868 136.451 136.264 136.135 136.343C136.135 136.343 136.055 136.343 136.055 136.422L134.076 139.749C133.996 139.828 134.076 139.907 134.234 139.907L136.531 139.432C136.61 139.432 136.61 139.432 136.61 139.511L136.689 139.828C136.689 139.907 136.768 139.907 136.768 139.907L139.619 141.491C139.699 141.491 139.699 141.491 139.778 141.491L140.095 141.412C140.174 141.412 140.174 141.412 140.174 141.491L141.045 143.629C141.045 143.709 141.203 143.709 141.283 143.629L143.025 140.224C143.104 140.224 143.104 140.145 143.104 140.145Z" fill="black"/>
<path d="M136.927 140.541L137.006 140.858C137.006 140.858 137.006 140.937 137.085 140.937L138.828 141.887H138.907L139.224 141.808C139.303 141.808 139.303 141.649 139.224 141.649L137.085 140.462C137.006 140.382 136.927 140.462 136.927 140.541Z" fill="black"/>
<path d="M137.164 143.075C137.244 142.996 137.164 142.917 137.085 142.837C137.006 142.758 136.927 142.837 136.848 142.917C136.768 142.996 135.818 144.976 135.739 145.213C135.976 145.055 137.085 143.154 137.164 143.075Z" fill="black"/>
<path d="M137.243 141.57C137.323 141.491 137.243 141.412 137.164 141.333C137.085 141.253 137.006 141.333 136.927 141.412C136.847 141.491 135.897 143.471 135.818 143.709C136.055 143.55 137.164 141.649 137.243 141.57Z" fill="black"/>
<path d="M138.352 142.204C138.432 142.125 138.352 142.046 138.273 141.966C138.194 141.887 138.115 141.966 138.036 142.046C137.956 142.125 137.006 144.105 136.927 144.342C137.244 144.184 138.352 142.283 138.352 142.204Z" fill="black"/>
<path d="M141.362 136.185C142.018 136.185 142.55 135.653 142.55 134.997C142.55 134.341 142.018 133.809 141.362 133.809C140.706 133.809 140.174 134.341 140.174 134.997C140.174 135.653 140.706 136.185 141.362 136.185Z" fill="white"/>
<path d="M139.461 147.273C145.016 147.273 149.519 142.769 149.519 137.214C149.519 131.659 145.016 127.156 139.461 127.156C133.906 127.156 129.403 131.659 129.403 137.214C129.403 142.769 133.906 147.273 139.461 147.273Z" stroke="#171034" stroke-width="0.7738" stroke-miterlimit="10"/>
<path d="M118.394 160.657C116.414 153.767 109.286 129.691 105.96 118.444C104.93 115.039 106.99 111.554 110.474 110.762H110.553C120.849 107.515 156.172 98.1697 156.172 98.1697" stroke="#171034" stroke-width="0.7738" stroke-miterlimit="10"/>
<path d="M197.196 64.2726C200.827 64.2726 203.77 61.3296 203.77 57.6992C203.77 54.0688 200.827 51.1257 197.196 51.1257C193.566 51.1257 190.623 54.0688 190.623 57.6992C190.623 61.3296 193.566 64.2726 197.196 64.2726Z" fill="#171233" stroke="#171233" stroke-width="2.3211" stroke-miterlimit="10"/>
<path d="M200.998 76.2316C203.623 76.2316 205.75 74.1041 205.75 71.4797C205.75 68.8553 203.623 66.7278 200.998 66.7278C198.374 66.7278 196.247 68.8553 196.247 71.4797C196.247 74.1041 198.374 76.2316 200.998 76.2316Z" fill="#CDEBF2" stroke="#171233" stroke-width="2.3211" stroke-miterlimit="10"/>
<path d="M201.621 57.8302C201.796 55.3869 199.991 53.2676 197.592 53.0966C195.192 52.9256 193.106 54.7677 192.931 57.211C192.757 59.6543 194.562 61.7736 196.961 61.9446C199.361 62.1156 201.447 60.2736 201.621 57.8302Z" fill="white" stroke="#403590" stroke-width="2.3212" stroke-miterlimit="10.0003"/>
<path d="M200.998 74.489C202.66 74.489 204.008 73.1416 204.008 71.4795C204.008 69.8174 202.66 68.47 200.998 68.47C199.336 68.47 197.989 69.8174 197.989 71.4795C197.989 73.1416 199.336 74.489 200.998 74.489Z" fill="white"/>
<path d="M225.707 150.124C237.998 150.124 247.962 139.309 247.962 125.968C247.962 112.628 237.998 101.813 225.707 101.813C213.416 101.813 203.453 112.628 203.453 125.968C203.453 139.309 213.416 150.124 225.707 150.124Z" fill="white" stroke="#171233" stroke-width="1.9664" stroke-miterlimit="10"/>
<path d="M268.317 140.065C268.317 140.065 260.001 128.661 250.576 119.949C244.082 113.93 237.033 109.178 231.727 110.287C210.343 114.801 210.502 135.076 222.461 150.52C234.42 165.963 264.198 173.091 273.306 174.517C282.414 175.942 302.768 153.529 307.282 119.474C305.064 115.989 298.412 110.921 291.363 110.841C287.482 113.296 276.157 122.483 268.317 140.065Z" fill="white" stroke="#171233" stroke-width="1.9664" stroke-miterlimit="10"/>
<path d="M278.295 168.498C267.604 172.061 264.198 164.854 253.506 162.716C236.4 164.934 231.727 158.756 229.588 157.331C219.609 152.341 227.767 142.204 221.352 133.65C217.788 127.948 227.767 132.938 231.331 128.661C230.143 126.047 228.876 121.771 226.341 120.266C231.331 117.415 232.756 122.721 237.746 120.662C237.667 111.712 248.438 120.741 251.685 120.899C244.874 114.405 237.35 109.099 231.806 110.287C210.423 114.801 210.581 135.076 222.54 150.52C234.499 165.963 264.277 173.091 273.385 174.517C278.058 175.229 295.481 164.142 305.698 128.74C301.342 132.462 283.681 166.676 278.295 168.498Z" fill="#CDEBF2"/>
<path d="M225.708 153.371C226.262 152.816 251.288 140.62 252.16 121.375C259.05 128.582 259.842 129.532 259.842 129.532C259.842 129.532 257.545 151.47 233.786 160.261C229.034 158.043 225.708 153.371 225.708 153.371Z" fill="#B5AED6" stroke="#171034" stroke-width="2" stroke-miterlimit="10"/>
<path d="M268.316 140.065C268.316 140.065 244.636 107.515 231.806 110.287C210.423 114.801 210.581 135.076 222.54 150.52C234.499 165.963 264.277 173.091 273.385 174.517C282.493 175.942 302.847 153.529 307.361 119.474C305.144 115.989 298.491 110.92 291.442 110.841C287.482 113.296 276.157 122.483 268.316 140.065Z" stroke="#171233" stroke-width="1.9664" stroke-miterlimit="10"/>
<path d="M269.108 139.907C269.583 141.729 269.741 143.392 269.821 145.213C269.821 146.956 269.662 148.777 269.345 150.44C269.029 152.183 268.395 153.846 267.524 155.351C266.732 156.935 265.544 158.202 264.356 159.469C265.465 158.123 266.494 156.776 267.128 155.192C267.841 153.608 268.316 152.024 268.553 150.361C268.791 148.698 268.791 147.035 268.633 145.292C268.474 143.629 268.157 141.966 267.603 140.461V140.382C267.445 139.986 267.682 139.511 268.078 139.353C268.553 139.194 268.949 139.432 269.108 139.907C269.108 139.828 269.108 139.828 269.108 139.907Z" fill="#171233"/>
<path d="M274.415 153.371C273.939 150.915 273.068 148.619 272.039 146.48C271.484 145.372 270.851 144.342 270.138 143.392C269.425 142.441 268.633 141.491 267.841 140.699C267.524 140.382 267.524 139.907 267.841 139.59C268.158 139.273 268.633 139.273 268.95 139.59C268.95 139.59 268.95 139.669 269.029 139.669C269.821 140.699 270.613 141.728 271.167 142.837C271.801 143.946 272.355 145.055 272.751 146.243C273.623 148.46 274.256 150.915 274.415 153.371Z" fill="#171233"/>
<path d="M232.281 134.125C232.043 133.729 231.647 133.413 231.331 133.175C230.935 132.937 230.539 132.7 230.143 132.462L227.767 131.116C226.183 130.165 224.678 129.136 223.252 127.948C221.827 126.76 220.56 125.414 219.451 123.909C218.342 122.404 217.471 120.662 216.917 118.84C216.758 118.444 216.996 117.969 217.471 117.89C217.867 117.731 218.342 117.969 218.421 118.444V118.523C218.817 120.186 219.451 121.85 220.401 123.354C221.352 124.859 222.46 126.205 223.807 127.473C225.074 128.74 226.5 129.849 228.004 130.878L230.222 132.462C230.618 132.7 230.935 133.017 231.331 133.254C231.727 133.333 232.043 133.65 232.281 134.125Z" fill="#171233"/>
<path d="M236.399 120.028C235.291 119.711 234.34 118.919 233.548 118.048C232.756 117.177 232.044 116.306 231.252 115.435C230.46 114.564 229.668 113.851 228.717 113.376C227.767 112.98 226.737 112.9 225.787 113.138C225.391 113.217 224.916 112.98 224.836 112.584C224.757 112.188 224.995 111.712 225.391 111.633H225.47C226.737 111.475 228.163 111.712 229.272 112.346C230.38 112.98 231.172 113.93 231.806 114.88C232.519 115.831 233.073 116.781 233.786 117.731C234.499 118.761 235.291 119.632 236.399 120.028Z" fill="#171233"/>
<path d="M216.283 80.9835C215.412 80.5876 213.352 77.4988 212.877 76.3108C212.402 75.2021 211.056 70.767 210.422 71.559C209.868 72.3509 210.976 77.7364 211.135 78.6868C211.848 82.6467 213.828 85.1811 215.253 84.7851C216.679 84.3891 218.025 81.7755 216.283 80.9835Z" fill="white"/>
<path d="M263.406 223.224C261.901 223.54 258.654 223.461 257.545 224.649C254.061 228.451 252.873 233.757 250.022 238.034C249.467 238.905 248.834 240.014 249.388 240.964C250.497 240.568 251.764 241.202 252.556 242.152C253.269 243.102 253.665 244.29 253.982 245.399C254.853 248.25 255.803 251.101 257.545 253.557C259.288 256.012 261.664 258.071 264.594 258.784C264.911 258.863 265.228 258.942 265.544 258.784C266.099 258.467 266.02 257.675 265.861 257.041C264.594 251.814 263.406 246.587 262.139 241.439C261.822 240.172 261.585 238.984 261.664 237.717C261.743 236.608 262.139 235.579 262.614 234.549C264.515 230.747 270.93 222.511 263.406 223.224Z" fill="#CDEBF2"/>
<path d="M265.941 224.649C264.753 228.926 257.15 237.083 253.982 239.459C251.764 241.122 266.653 262.427 268.871 263.535C271.089 264.644 279.088 252.923 278.929 249.28C278.692 245.637 266.97 221.006 265.941 224.649Z" fill="white" stroke="#171233" stroke-width="2.0951" stroke-miterlimit="10"/>
<path d="M265.782 223.62C264.594 223.699 263.327 223.778 262.139 223.778C261.505 223.778 260.951 223.778 260.476 223.936C260.001 224.095 259.763 224.332 259.525 224.887C258.417 227.104 257.07 229.163 255.645 231.223C254.219 233.203 252.714 235.182 251.13 237.004C249.546 238.905 247.962 240.726 246.378 242.548L245.982 241.756C247.804 241.756 249.705 241.756 251.606 241.835C249.784 242.231 247.962 242.469 246.062 242.706C245.824 242.706 245.587 242.548 245.507 242.31C245.507 242.152 245.507 242.073 245.587 241.994V241.914C248.358 237.875 251.447 234.074 254.298 230.193C255.724 228.213 257.149 226.312 258.496 224.253C258.654 224.016 258.892 223.699 259.209 223.461C259.525 223.224 259.921 223.065 260.238 222.986C260.951 222.828 261.585 222.986 262.218 223.065C263.406 223.224 264.594 223.382 265.782 223.62Z" fill="#171233"/>
<path d="M246.379 243.261C248.2 244.924 249.943 246.666 251.606 248.488C253.269 250.309 254.853 252.21 256.437 254.111L258.734 256.962C259.526 257.912 260.318 258.863 261.11 259.734C261.902 260.605 262.773 261.476 263.723 262.268C264.674 263.06 265.624 263.694 266.891 264.011C265.624 264.011 264.436 263.456 263.327 262.823C262.219 262.189 261.268 261.397 260.318 260.526C258.417 258.863 256.833 256.962 255.249 255.061C253.665 253.161 252.16 251.26 250.656 249.28C249.151 247.379 247.646 245.399 246.379 243.261Z" fill="#171233"/>
<path d="M267.683 237.242C267.604 238.113 267.445 238.984 267.287 239.855C267.128 240.726 266.97 241.518 266.732 242.39L266.653 241.756C268.079 243.261 269.029 245.241 269.425 247.3C269.584 248.329 269.663 249.359 269.584 250.468C269.504 251.497 269.267 252.527 268.871 253.477L268.792 253.081C269.267 253.715 269.821 254.428 270.296 255.061C269.584 254.586 268.95 254.111 268.237 253.636L268.079 253.557L268.158 253.24C268.316 252.289 268.316 251.339 268.316 250.389C268.316 249.438 268.158 248.567 268 247.617C267.604 245.795 266.891 244.053 265.782 242.548L265.544 242.231L265.624 241.914C265.94 241.122 266.257 240.33 266.653 239.538C266.891 238.826 267.208 238.034 267.683 237.242Z" fill="#171233"/>
</svg>
